<?xml version="1.0" encoding="UTF-8" standalone="no"?>
<!-- Created with Inkscape (http://www.inkscape.org/) -->

<svg
   xmlns:dc="http://purl.org/dc/elements/1.1/"
   xmlns:cc="http://creativecommons.org/ns#"
   xmlns:rdf="http://www.w3.org/1999/02/22-rdf-syntax-ns#"
   xmlns:svg="http://www.w3.org/2000/svg"
   xmlns="http://www.w3.org/2000/svg"
   xmlns:xlink="http://www.w3.org/1999/xlink"
   xmlns:sodipodi="http://sodipodi.sourceforge.net/DTD/sodipodi-0.dtd"
   xmlns:inkscape="http://www.inkscape.org/namespaces/inkscape"
   width="600"
   height="600"
   viewBox="0 0 600.00001 600.00001"
   id="svg4671"
   version="1.1"
   inkscape:version="0.91 r13725"
   sodipodi:docname="Wspieram-BydgoszczJUG.svg">
  <defs
     id="defs4673">
    <clipPath
       clipPathUnits="userSpaceOnUse"
       id="clipPath4509">
      <path
         d="M 0,400 400,400 400,0 0,0 0,400 Z"
         id="path4511"
         inkscape:connector-curvature="0" />
    </clipPath>
    <clipPath
       clipPathUnits="userSpaceOnUse"
       id="clipPath4509-6">
      <path
         d="M 0,400 400,400 400,0 0,0 0,400 Z"
         id="path4511-2"
         inkscape:connector-curvature="0" />
    </clipPath>
    <circle
       style="fill:none;fill-opacity:1;stroke:none;stroke-width:2.31168962;stroke-linecap:round;stroke-linejoin:miter;stroke-miterlimit:4;stroke-dasharray:none;stroke-dashoffset:13;stroke-opacity:1"
       id="path6283"
       cx="-362.65045"
       cy="-338.46118"
       r="11.094046"
       transform="matrix(-0.92472196,-0.38064327,0.38064327,-0.92472196,0,0)" />
  </defs>
  <sodipodi:namedview
     id="base"
     pagecolor="#ffffff"
     bordercolor="#666666"
     borderopacity="1.0"
     inkscape:pageopacity="0.0"
     inkscape:pageshadow="2"
     inkscape:zoom="0.35"
     inkscape:cx="-83.847886"
     inkscape:cy="274.34023"
     inkscape:document-units="px"
     inkscape:current-layer="layer1"
     showgrid="false"
     units="px"
     showguides="true"
     inkscape:guide-bbox="true"
     inkscape:window-width="1360"
     inkscape:window-height="705"
     inkscape:window-x="-8"
     inkscape:window-y="-8"
     inkscape:window-maximized="1">
    <sodipodi:guide
       position="300,411.42858"
       orientation="1,0"
       id="guide5570"
       inkscape:label=""
       inkscape:color="rgb(0,0,255)" />
    <sodipodi:guide
       position="-94.954341,359.61431"
       orientation="0,1"
       id="guide5572" />
  </sodipodi:namedview>
  <metadata
     id="metadata4676">
    <rdf:RDF>
      <cc:Work
         rdf:about="">
        <dc:format>image/svg+xml</dc:format>
        <dc:type
           rdf:resource="http://purl.org/dc/dcmitype/StillImage" />
        <dc:title></dc:title>
      </cc:Work>
    </rdf:RDF>
  </metadata>
  <g
     inkscape:label="Layer 1"
     inkscape:groupmode="layer"
     id="layer1"
     transform="translate(0,-452.36216)">
    <g
       style="display:inline"
       id="g4369"
       transform="matrix(1.25,0,0,-1.25,52.043661,1046.3344)"
       inkscape:export-xdpi="88"
       inkscape:export-ydpi="88">
      <g
         transform="translate(200.639,17.7665)"
         id="g4377">
        <path
           inkscape:connector-curvature="0"
           id="path4379"
           style="fill:#ffffff;fill-opacity:1;fill-rule:nonzero;stroke:none"
           d="m 0,0 c -48.365,0 -93.803,18.823 -127.94,53.001 -34.139,34.179 -52.918,79.65 -52.88,128.036 0.078,99.568 81.141,180.605 180.703,180.643 99.762,0 180.909,-81.091 180.961,-180.764 C 180.869,132.644 162.069,87.23 127.907,53.042 93.745,18.854 48.343,0.017 0.065,0 L 0,0 Z" />
      </g>
      <g
         transform="translate(200.6093,384.4464)"
         id="g4381">
        <path
           inkscape:connector-curvature="0"
           id="path4383"
           style="fill:#373435;fill-opacity:1;fill-rule:nonzero;stroke:none"
           d="M 0,0 0,-10 0,0 -0.017,0 -0.085,0 c -25.049,-0.01 -49.354,-4.927 -72.245,-14.616 -22.104,-9.356 -41.957,-22.742 -59.008,-39.788 -17.051,-17.046 -30.445,-36.895 -39.809,-58.996 -9.697,-22.888 -14.624,-47.193 -14.644,-72.239 -0.02,-25.126 4.876,-49.498 14.551,-72.441 9.345,-22.158 22.733,-42.053 39.791,-59.132 17.059,-17.078 36.936,-30.487 59.078,-39.853 22.927,-9.698 47.286,-14.615 72.401,-14.615 l 0.063,0 c 25.074,0.009 49.405,4.937 72.321,14.646 22.126,9.375 41.996,22.786 59.06,39.863 17.063,17.076 30.459,36.956 39.815,59.087 9.691,22.922 14.598,47.255 14.585,72.323 -0.013,25.057 -4.943,49.377 -14.652,72.285 -9.374,22.117 -22.783,41.982 -39.855,59.043 -17.071,17.061 -36.945,30.459 -59.069,39.82 C 49.384,-4.916 25.059,0 0,0 m -0.016,-10 c 97.023,0.009 175.839,-78.755 175.89,-175.766 0.051,-97.048 -78.721,-175.88 -175.781,-175.914 -0.018,0 -0.045,0 -0.063,0 -97.237,0 -175.898,78.749 -175.821,176.033 0.077,96.963 78.749,175.61 175.706,175.647 0.018,0 0.051,0 0.069,0" />
      </g>
      <g
         transform="translate(161.925,263.8647)"
         id="g4385">
        <path
           inkscape:connector-curvature="0"
           id="path4387"
           style="fill:#373435;fill-opacity:1;fill-rule:nonzero;stroke:none"
           d="m 0,0 c 0,0 -0.298,-2.381 -3.572,-4.167 -3.274,-1.786 -10.417,-4.465 -16.668,-5.953 -6.251,-1.488 -13.692,-2.381 -13.692,-2.381 l 1.488,-2.977 c 0,0 5.358,0.596 11.311,2.084 5.953,1.488 11.311,2.679 12.501,3.274 1.191,0.595 3.274,0.893 3.87,-1.191 0.595,-2.083 0.297,-3.274 -0.298,-5.655 -0.595,-2.381 5.655,10.12 5.655,10.12 L 0,0" />
      </g>
      <g
         transform="translate(260.6326,232.9092)"
         id="g4389">
        <path
           inkscape:connector-curvature="0"
           id="path4391"
           style="fill:#373435;fill-opacity:1;fill-rule:nonzero;stroke:none"
           d="m 0,0 c 0,0 -0.205,-1.642 -2.464,-2.874 -2.258,-1.232 -7.185,-3.08 -11.496,-4.106 -4.311,-1.027 -9.444,-1.642 -9.444,-1.642 l 1.027,-2.053 c 0,0 3.695,0.41 7.801,1.437 4.106,1.026 7.801,1.847 8.622,2.258 0.822,0.41 2.259,0.616 2.669,-0.821 0.411,-1.437 0.206,-2.259 -0.205,-3.901 -0.411,-1.642 3.901,6.98 3.901,6.98 L 0,0" />
      </g>
      <g
         transform="translate(136.9519,232.9092)"
         id="g4393">
        <path
           inkscape:connector-curvature="0"
           id="path4395"
           style="fill:#373435;fill-opacity:1;fill-rule:nonzero;stroke:none"
           d="m 0,0 c 0,0 0.205,-1.642 2.464,-2.874 2.258,-1.232 7.185,-3.08 11.496,-4.106 4.311,-1.027 9.444,-1.642 9.444,-1.642 l -1.027,-2.053 c 0,0 -3.695,0.41 -7.801,1.437 -4.106,1.026 -7.801,1.847 -8.622,2.258 -0.822,0.41 -2.259,0.616 -2.669,-0.821 -0.411,-1.437 -0.206,-2.259 0.205,-3.901 0.411,-1.642 -3.901,6.98 -3.901,6.98 L 0,0" />
      </g>
      <g
         transform="translate(236.0395,263.8647)"
         id="g4397">
        <path
           inkscape:connector-curvature="0"
           id="path4399"
           style="fill:#373435;fill-opacity:1;fill-rule:nonzero;stroke:none"
           d="m 0,0 c 0,0 0.298,-2.381 3.572,-4.167 3.274,-1.786 10.418,-4.465 16.668,-5.953 6.251,-1.488 13.692,-2.381 13.692,-2.381 l -1.488,-2.977 c 0,0 -5.358,0.596 -11.311,2.084 -5.953,1.488 -11.311,2.679 -12.501,3.274 -1.191,0.595 -3.274,0.893 -3.87,-1.191 -0.595,-2.083 -0.297,-3.274 0.298,-5.655 0.595,-2.381 -5.655,10.12 -5.655,10.12 L 0,0" />
      </g>
      <g
         transform="translate(243.3132,194.5976)"
         id="g4401">
        <path
           inkscape:connector-curvature="0"
           id="path4403"
           style="fill:#373435;fill-opacity:1;fill-rule:nonzero;stroke:none"
           d="m 0,0 c -0.189,-1.526 -0.432,-3.048 -0.871,-4.532 -0.22,-0.744 -0.503,-1.454 -0.896,-2.121 -1.643,-2.789 -4.024,-3.785 -7.151,-2.963 -1.555,0.41 -2.999,1.101 -4.344,1.965 -1.341,0.862 -2.715,1.707 -3.917,2.742 -4.168,3.588 -9.065,5.76 -14.171,7.573 -10.264,3.643 -20.583,3.714 -30.943,0.478 -2.735,-0.855 -5.288,-2.166 -7.836,-3.46 -4.216,-2.139 -8.449,-4.246 -12.543,-6.618 -1.141,-0.661 -2.305,-1.279 -3.613,-1.582 -2.174,-0.504 -3.602,0.157 -4.593,2.175 -0.687,1.402 -0.902,2.933 -1.235,4.435 -0.809,3.654 -0.645,7.335 -0.316,11.014 0.529,5.919 1.206,11.82 2.541,17.623 1.469,6.38 3.401,12.632 5.197,18.922 2.809,9.844 6.423,19.415 9.737,29.087 0.285,0.831 0.664,1.276 1.594,1.317 1.802,0.079 3.599,0.262 5.444,0.405 0.127,-1.361 0.168,-2.625 0.374,-3.861 1.079,-6.475 4.865,-10.918 10.55,-13.913 0.626,-0.33 1.238,-0.688 1.856,-1.032 4.153,-1.805 8.409,-3.234 12.983,-3.403 3.741,-0.139 7.33,0.673 10.753,2.108 4.708,1.975 8.658,4.951 11.618,9.179 1.86,2.659 2.377,5.61 2.221,8.776 -0.105,2.131 -0.044,2.134 2.134,1.912 0.937,0.218 1.341,-0.254 1.706,-1.08 2.916,-6.611 5.215,-13.414 6.782,-20.476 2,-9.018 4.043,-18.024 5.859,-27.083 C 0.755,18.433 1.149,9.253 0,0 m -62.313,83.563 c 2.041,2.912 5.016,4.548 8.39,5.483 2.496,0.691 5.044,0.939 7.635,1.094 4.449,0.267 8.611,-0.619 12.567,-2.564 3.014,-1.482 5.55,-3.577 7.4,-6.401 1.252,-1.911 2.078,-3.998 1.976,-5.793 0.009,-4.472 -1.801,-7.569 -4.57,-10.073 -3.116,-2.818 -6.68,-4.966 -10.834,-5.957 -6.209,-1.481 -11.972,-0.349 -17.334,3.023 -3.542,2.228 -5.992,5.309 -7.064,9.383 -1.102,4.186 -0.687,8.206 1.834,11.805 m 53.645,-9.909 c -1.037,3.189 -2.31,6.304 -3.66,9.371 -6.757,15.355 -13.977,30.495 -21.388,45.544 -2.527,5.132 -5.086,10.249 -7.941,15.21 -0.712,1.238 -1.781,3.323 -2.425,4.717 -0.804,1.743 -1.234,-0.088 -2.184,-1.691 -2.381,-4.019 -5.191,-8.957 -7.38,-13.456 -7.77,-15.975 -15.439,-31.996 -22.073,-48.488 C -76.538,82.824 -77.233,80.75 -78,78.68 -79.552,74.487 -80.834,71.203 -82.113,67.385 -88.85,47.266 -95.508,27.856 -97.588,8.171 -97.703,7.077 -97.56,4.232 -97.42,3.14 c 0.457,-3.565 1.251,-7.05 2.767,-10.318 1.546,-3.332 4.124,-5.209 7.912,-5.182 1.858,0.013 3.561,0.461 5.146,1.491 4.619,2.998 9.404,5.702 14.468,7.887 5.335,2.302 10.825,3.995 16.675,4.317 3.973,0.219 7.929,0.012 11.857,-0.556 6.358,-0.919 12.045,-3.359 16.855,-7.697 1.022,-0.922 2.055,-1.832 3.094,-2.734 1.207,-1.047 2.451,-2.046 3.861,-2.816 4.245,-2.318 8.517,-2.244 12.804,-0.129 1.43,0.705 2.512,1.78 3.204,3.215 1.418,2.942 2.387,6.022 2.836,9.265 0.181,1.305 0.67,6.171 0.627,7.504 -0.896,27.781 -7.505,48.28 -13.354,66.267" />
      </g>
      <g
         transform="translate(236.7972,249.817)"
         id="g4405">
        <path
           inkscape:connector-curvature="0"
           id="path4407"
           style="fill:#f7e381;fill-opacity:1;fill-rule:nonzero;stroke:none"
           d="m 0,0 c -2.09,6.926 -4.289,13.316 -7.205,19.927 -0.365,0.826 -0.769,1.298 -1.706,1.08 -2.178,0.222 -2.239,0.219 -2.134,-1.912 0.156,-3.166 -0.361,-6.118 -2.221,-8.776 -2.96,-4.228 -6.91,-7.204 -11.618,-9.179 -3.423,-1.435 -7.012,-2.247 -10.753,-2.109 -4.574,0.17 -8.83,1.599 -12.983,3.403 -0.618,0.345 -1.23,0.703 -1.856,1.033 -5.685,2.995 -9.471,7.438 -10.55,13.913 -0.206,1.236 -0.247,2.5 -0.374,3.861 -1.845,-0.143 -3.642,-0.326 -5.444,-0.405 -0.93,-0.041 -1.309,-0.486 -1.594,-1.317 -3.314,-9.673 -6.928,-19.244 -9.737,-29.087 -1.796,-6.29 -3.728,-12.543 -5.197,-18.922 -1.335,-5.803 -2.012,-11.705 -2.541,-17.623 -0.329,-3.679 -0.493,-7.36 0.316,-11.014 0.333,-1.503 0.548,-3.034 1.235,-4.435 0.991,-2.019 2.419,-2.679 4.593,-2.175 1.308,0.303 2.472,0.92 3.613,1.581 4.094,2.373 8.327,4.479 12.543,6.619 2.548,1.293 5.101,2.605 7.836,3.459 10.36,3.236 20.679,3.166 30.942,-0.478 5.107,-1.812 10.004,-3.985 14.172,-7.572 1.202,-1.035 2.576,-1.881 3.917,-2.742 1.345,-0.864 2.789,-1.556 4.344,-1.965 3.127,-0.823 5.508,0.174 7.151,2.963 0.393,0.667 0.676,1.377 0.896,2.121 0.439,1.483 0.682,3.006 0.871,4.532 1.149,9.252 0.899,18.427 -0.467,27.662 C 4.646,-18.071 2.775,-9.196 0,0" />
      </g>
      <g
         transform="translate(227.8863,270.8235)"
         id="g4409">
        <path
           inkscape:connector-curvature="0"
           id="path4411"
           style="fill:#c1a056;fill-opacity:1;fill-rule:nonzero;stroke:none"
           d="m 0,0 c -0.542,-0.058 -1.085,-0.117 -1.668,-0.179 0,-0.95 -0.047,-1.912 0.008,-2.869 0.221,-3.815 -1.336,-6.968 -3.721,-9.754 -4.353,-5.087 -9.966,-8.144 -16.485,-9.257 -6.303,-1.077 -12.323,0.133 -17.843,3.487 0.648,0.159 1.164,-0.254 1.722,-0.432 5.308,-1.692 10.665,-2 16.066,-0.542 5.326,1.437 9.624,4.462 13.065,8.729 1.67,2.072 2.316,4.58 2.844,7.119 0.2,0.965 0.384,1.936 0.4,2.929 0.008,0.553 0.204,0.994 0.858,0.96 C -3.17,0.11 -1.573,0.349 0,0" />
      </g>
      <g
         transform="translate(193.6006,241.0063)"
         id="g4413">
        <path
           inkscape:connector-curvature="0"
           id="path4415"
           style="fill:#373435;fill-opacity:1;fill-rule:evenodd;stroke:none"
           d="M 0,0 0.014,-0.082 C 0.011,-0.054 0.007,-0.027 0,0 M 3.146,1.644 4.839,1.899 5.126,1.952 5.402,2.006 5.666,2.06 5.914,2.115 6.147,2.169 6.36,2.223 6.552,2.274 6.722,2.323 6.797,2.347 6.866,2.369 6.928,2.39 6.98,2.408 l 0.046,0.017 0.02,0.007 0.371,0.41 c 0.031,0.834 0.051,1.669 0.079,2.503 l 0.112,1.84 -0.433,3.419 -0.153,0.657 -0.18,0.586 -0.206,0.524 -0.235,0.471 -0.182,0.285 -0.194,0.27 -0.211,0.257 -0.224,0.245 -0.24,0.235 -0.254,0.225 -0.269,0.217 -0.282,0.21 -2.199,1.369 c -0.46,0.258 -0.968,0.507 -1.282,0.834 l -0.007,0.128 0.185,0.073 c 1.765,0.117 3.929,-0.669 5.302,-1.21 l 0.454,-0.212 0.447,-0.23 0.439,-0.249 0.426,-0.27 0.412,-0.29 0.395,-0.312 0.376,-0.334 0.355,-0.356 0.508,-0.58 0.455,-0.637 0.4,-0.697 0.35,-0.757 c 0.47,-1.245 0.768,-2.488 1.028,-3.752 l 0.044,-0.305 c 0.106,-1.518 0.013,-3.05 0.182,-4.564 L 12.438,1.632 C 12.225,1.378 12.011,1.124 11.796,0.87 L 11.666,0.731 11.526,0.605 11.383,0.49 11.235,0.385 C 11.045,0.262 10.845,0.149 10.627,0.041 L 10.473,-0.031 10.319,-0.099 10.163,-0.164 10.006,-0.226 9.849,-0.285 9.688,-0.342 9.525,-0.397 9.362,-0.45 9.033,-0.55 C 8.215,-0.783 7.378,-0.97 6.51,-1.132 L 4.331,-1.465 1.268,-1.723 0.781,-1.736 0.346,-1.74 c -0.479,-0.025 -0.967,-0.097 -1.444,-0.137 l -0.722,-0.038 -0.207,-0.004 -0.224,0.002 -0.246,0.01 -0.277,0.02 -0.785,0.126 c -0.109,0.028 -0.215,0.057 -0.32,0.088 l -0.228,0.079 -0.232,0.099 -0.118,0.058 -0.116,0.064 -0.113,0.068 -0.109,0.075 -0.103,0.079 -0.097,0.084 -0.089,0.088 -0.078,0.089 -0.07,0.094 -0.06,0.095 -0.05,0.095 -0.039,0.094 -0.028,0.092 -0.019,0.091 -0.011,0.088 -0.004,0.084 2.986,16.945 0.499,0.329 0.494,-0.334 c 0.945,-1.912 0.887,-3.932 0.866,-5.905 l 0.512,-9.462 0.389,0.011 0.272,0.005 c 0.869,0.03 1.719,0.109 2.571,0.212" />
      </g>
      <g
         transform="translate(199.5534,223.2738)"
         id="g4417">
        <path
           inkscape:connector-curvature="0"
           id="path4419"
           style="fill:#373435;fill-opacity:1;fill-rule:evenodd;stroke:none"
           d="m 0,0 c -0.003,-0.006 -0.006,-0.013 -0.006,-0.02 0.003,0.003 0.004,0.009 0.004,0.012 L 0,0 Z m -1.859,-0.27 1.552,0.869 c 0.102,0 0.203,-0.001 0.305,-0.001 -0.026,0.333 -0.07,0.667 -0.071,1 l 0.221,4.751 0.078,0.514 c 0.26,0.988 0.703,1.954 0.97,2.94 l 0.044,0.43 -0.086,-0.019 -1.185,-0.081 c -0.869,0.051 -1.737,0.108 -2.603,0.173 l -0.57,-0.04 C -4.091,10.204 -4.956,10.027 -5.851,9.984 l -1.255,0.144 -0.052,0.107 0.068,0.163 c 0.278,0.233 0.74,0.363 1.16,0.499 l 2.782,0.938 0.855,0.082 c 0.688,0.05 1.377,0.095 2.067,0.135 0.218,0.079 0.445,0.152 0.668,0.226 l 0.606,0.216 1.025,0.122 c 0.441,0.021 0.882,0.041 1.323,0.06 l 2.026,-1.197 c 0.11,-0.555 0.11,-1.118 0.176,-1.676 L 5.131,6.601 5.137,6.349 5.358,1.598 5.51,-0.043 5.475,-0.357 5.379,-0.7 5.342,-0.792 5.298,-0.886 5.245,-0.983 5.183,-1.082 5.111,-1.183 C 5.07,-1.235 5.028,-1.286 4.984,-1.336 L 4.886,-1.439 4.774,-1.542 4.648,-1.645 4.511,-1.745 C 4.436,-1.795 4.36,-1.842 4.28,-1.89 L 4.112,-1.981 3.934,-2.067 3.747,-2.146 3.553,-2.219 3.354,-2.284 3.151,-2.342 2.944,-2.393 2.737,-2.437 2.53,-2.474 2.325,-2.505 2.122,-2.53 1.921,-2.549 1.722,-2.564 1.524,-2.574 1.329,-2.58 1.135,-2.582 l -0.128,0 -1.665,-0.864 c -0.123,0 -0.249,0 -0.372,0.001 l -3.865,-0.838 -0.067,0.002 c -0.459,0.005 -0.918,0.006 -1.377,0.011 l -0.065,0.002 -0.754,0.008 -2.432,0.89 c -0.226,0.276 -0.502,0.551 -0.691,0.835 l -0.261,1.111 0.002,0.018 c 0.008,0.132 0.009,0.264 0.016,0.395 l 0.003,0.018 0.046,0.864 0.081,1.296 0.148,1.968 0.024,0.191 0.128,1.295 c 0.031,-0.017 0.015,-0.003 0.022,0.021 l -0.502,2.138 0.578,3.166 0.091,0.289 0.516,1.516 c 0.102,0.23 0.208,0.477 0.558,0.621 l 0.166,0.022 0.166,-0.022 0.163,-0.075 c 0.266,-0.224 0.371,-0.47 0.472,-0.733 l 0.439,-1.329 0.091,-0.289 c 0.27,-1.05 0.39,-2.11 0.578,-3.165 L -6.711,6.757 C -6.333,6.054 -5.872,5.354 -5.728,4.621 L -5.6,3.326 -5.577,3.135 c 0.061,-0.656 0.085,-1.313 0.148,-1.968 l 0.081,-1.296 0.046,-0.863 0.003,-0.019 c 0.003,-0.05 0.004,-0.1 0.007,-0.151 0.058,10e-4 0.116,10e-4 0.175,10e-4 0.003,0.005 0.007,0.009 0.01,0.013 l 2.753,0.877 c 0.165,0 0.329,0 0.495,0.001" />
      </g>
      <g
         transform="translate(197.2932,204.0239)"
         id="g4421">
        <path
           inkscape:connector-curvature="0"
           id="path4423"
           style="fill:#373435;fill-opacity:1;fill-rule:evenodd;stroke:none"
           d="m 0,0 0.002,-0.006 c 0.006,-0.015 0.011,-0.035 0.027,-0.048 0.007,0.006 -0.003,0.022 -0.006,0.028 L 0,0 Z m 5.386,1.045 0.155,0.23 0.079,0.146 0.072,0.156 0.062,0.167 0.055,0.176 0.043,0.185 0.033,0.194 0.023,0.203 0.01,0.209 0.399,9.35 -4.091,-0.423 c -0.795,-0.051 -1.63,-0.107 -2.405,0.03 l -0.195,0.112 0.04,0.157 c 0.474,0.376 1.202,0.618 1.892,0.85 l 4.297,1.242 0.648,0.057 c 0.22,0.013 0.441,0.027 0.662,0.039 l 0.06,0.01 c 0.27,0.018 0.542,0.026 0.813,0.036 l 0.634,0.035 1.873,-2.35 C 10.524,8.798 11.276,5.768 11.426,2.712 L 11.421,2.395 11.397,2.081 11.353,1.77 11.289,1.462 11.204,1.158 11.095,0.858 10.964,0.562 10.81,0.27 10.568,-0.106 c -0.03,-0.041 -0.06,-0.082 -0.091,-0.123 L 10.306,-0.441 10.12,-0.648 9.917,-0.85 9.698,-1.046 9.463,-1.235 9.212,-1.418 8.943,-1.593 8.659,-1.76 8.26,-1.967 7.835,-2.156 7.385,-2.327 6.913,-2.479 6.421,-2.609 5.914,-2.719 5.392,-2.807 4.861,-2.872 4.304,-2.917 3.743,-2.939 l -0.564,0 -0.565,0.021 -0.566,0.04 -0.565,0.059 -0.565,0.078 -0.562,0.095 -0.242,0.043 -0.223,0.036 -0.208,0.03 -0.196,0.025 -0.186,0.021 c -0.183,0.018 -0.367,0.035 -0.55,0.051 l -0.542,0.044 -0.127,0.013 -0.137,0.016 -0.146,0.018 -0.42,0.069 -0.187,0.04 c -0.101,0.025 -0.199,0.051 -0.299,0.078 l -0.206,0.066 -0.209,0.076 -0.203,0.089 -0.197,0.1 c -0.408,0.24 -0.682,0.494 -0.885,0.807 l -0.059,0.111 -0.05,0.107 -0.041,0.104 -0.033,0.102 c -0.038,0.132 -0.065,0.264 -0.085,0.397 l -0.014,0.211 -0.005,0.218 c 0.003,0.541 0.041,1.081 0.075,1.622 l 0.166,1.526 c 0.047,0.601 0.083,1.205 0.189,1.804 l 0.059,0.124 -0.505,3.217 c -0.152,0.606 -0.33,1.237 -0.023,1.833 l 0.236,0.132 0.316,-0.05 c 0.76,-0.402 1.275,-0.961 1.762,-1.478 l 2.153,-3.653 0.058,-0.125 c 0.106,-0.599 0.143,-1.203 0.19,-1.804 L -0.253,1.848 -0.101,0.513 0.544,0.472 0.903,0.435 1.288,0.388 C 1.497,0.359 1.705,0.328 1.912,0.296 L 2.229,0.251 2.526,0.218 2.801,0.196 C 2.924,0.19 3.046,0.185 3.171,0.182 l 0.22,0.002 0.198,0.009 C 3.677,0.2 3.762,0.208 3.85,0.218 L 3.997,0.239 4.131,0.265 4.254,0.294 4.367,0.327 4.474,0.364 4.578,0.406 4.68,0.454 4.781,0.508 4.858,0.555 4.934,0.607 5.012,0.664 5.088,0.727 c 0.114,0.103 0.21,0.208 0.298,0.318" />
      </g>
      <g
         transform="translate(170.6222,209.1249)"
         id="g4425">
        <path
           inkscape:connector-curvature="0"
           id="path4427"
           style="fill:#373435;fill-opacity:1;fill-rule:evenodd;stroke:none"
           d="m 0,0 0.04,-0.039 c 0.01,-0.009 0.022,-0.021 0.036,-0.028 0.002,0.003 -0.007,0.011 -0.01,0.014 L 0.051,-0.039 C 0.035,-0.026 0.017,-0.013 0,0 M 8.356,7.498 8.358,7.497 C 8.426,7.465 8.496,7.441 8.578,7.422 L 8.64,7.412 8.721,7.417 C 8.712,7.45 8.559,7.477 8.356,7.498 M 6.77,1.068 7.491,1.026 7.531,1.731 8.101,7.185 8.138,7.476 C 8.139,7.488 8.139,7.502 8.14,7.517 7.77,7.546 7.341,7.561 7.245,7.567 L 4.406,7.771 C 3.866,7.825 3.333,7.893 2.928,8.114 L 2.85,8.234 2.924,8.355 C 3.271,8.57 3.741,8.69 4.206,8.805 l 3.039,0.516 2.398,0.08 0.51,-0.082 0.123,-0.03 C 10.359,9.267 10.44,9.243 10.521,9.217 l 0.122,-0.042 0.12,-0.048 0.118,-0.051 0.114,-0.055 0.109,-0.059 0.103,-0.061 0.097,-0.064 c 0.093,-0.066 0.177,-0.133 0.257,-0.205 l 0.203,-0.217 0.108,-0.141 0.092,-0.143 0.077,-0.147 0.063,-0.15 C 12.178,7.618 12.223,7.405 12.25,7.185 L 12.819,1.731 12.835,1.636 C 12.882,0.9 12.84,0.157 12.92,-0.577 l -0.946,-1.188 c -0.306,-0.149 -0.627,-0.26 -1,-0.346 L 10.842,-2.137 10.717,-2.16 10.595,-2.179 C 10.538,-2.186 10.482,-2.194 10.424,-2.201 L 10.064,-2.233 9.88,-2.242 9.712,-2.247 C 9.443,-2.249 9.177,-2.242 8.909,-2.227 L 7.971,-2.164 7.977,-2.165 7.741,-2.164 7.506,-2.16 7.273,-2.154 7.04,-2.145 C 6.729,-2.131 6.419,-2.113 6.11,-2.092 L 2.837,-1.834 1.091,-1.768 0.914,-1.771 0.574,-1.791 C 0.527,-1.795 0.47,-1.806 0.422,-1.805 0.264,-1.89 0.105,-1.975 -0.055,-2.06 l -2.081,-0.435 c -0.397,0.026 -0.749,0.086 -1.099,0.195 l -0.102,0.035 -0.09,0.033 c -0.039,0.016 -0.078,0.032 -0.116,0.048 l -0.068,0.031 c -0.066,0.031 -0.13,0.063 -0.192,0.097 l -0.087,0.05 -0.073,0.046 c -0.04,0.027 -0.081,0.054 -0.119,0.081 l -0.095,0.072 c -0.026,0.022 -0.053,0.044 -0.078,0.065 l -0.068,0.062 -0.06,0.057 -0.055,0.056 -0.051,0.054 -0.049,0.053 c -0.046,0.053 -0.09,0.106 -0.135,0.159 l -0.63,0.91 -0.702,1.199 -0.003,0.031 -0.161,0.459 c -0.057,0.597 0.134,1.104 0.499,1.658 l 0.403,0.572 0.067,0.1 c 0.042,0.067 0.083,0.134 0.121,0.201 l 0.135,0.733 c 0.037,0.295 0.066,0.59 0.144,0.883 l 0.043,0.062 1.254,2.308 c 0.281,0.34 0.549,0.699 0.98,0.985 l 0.246,0.064 0.245,-0.067 C -1.588,8.45 -1.486,8.031 -1.431,7.609 l 0.17,-2.102 0.042,-0.062 C -1.141,5.152 -1.111,4.857 -1.074,4.562 L -0.939,3.829 -0.932,3.578 -0.957,3.338 C -1.037,2.944 -1.199,2.569 -1.355,2.184 L -1.464,1.795 C -1.466,1.75 -1.473,1.685 -1.42,1.648 l 0.018,-0.002 c 0.013,0.008 0.314,-0.207 0.538,-0.466 0.407,0.067 0.83,0.114 1.279,0.145 l 0.383,0.02 C 1.676,1.374 2.539,1.353 3.414,1.309 L 6.77,1.068 Z" />
      </g>
      <g
         transform="translate(225.8824,210.5656)"
         id="g4429">
        <path
           inkscape:connector-curvature="0"
           id="path4431"
           style="fill:#373435;fill-opacity:1;fill-rule:evenodd;stroke:none"
           d="M 0,0 0,-0.001 -0.014,-0.034 C -0.015,-0.037 -0.016,-0.04 -0.016,-0.043 -0.008,-0.029 -0.004,-0.015 0,0 m -0.409,1.042 0,0 0.002,0 10e-4,0 0,0 0.001,0 0,0 0.556,-0.001 0.087,1.076 0.011,0.061 0.092,0.736 c 0.315,1.511 0.882,2.999 1.215,4.509 l 0.036,0.181 c 0.006,0.031 0.01,0.061 0.024,0.09 l 0.01,0.013 C 1.628,7.71 1.631,7.713 1.634,7.715 1.652,7.722 1.667,7.72 1.688,7.72 c 0.023,0 0.042,0 0.063,0.004 0.009,0.004 0.012,0.005 0.017,0.01 L 1.771,7.742 C 1.761,7.777 1.694,7.799 1.646,7.816 L 1.592,7.833 C 1.409,7.882 1.216,7.908 1.017,7.928 L -1.906,8.035 C -2.419,8.07 -2.923,8.12 -3.274,8.351 l -0.06,0.121 0.053,0.122 c 0.258,0.225 0.647,0.355 1.059,0.478 L 0.921,9.698 1.337,9.727 1.512,9.735 1.69,9.739 1.875,9.74 2.064,9.736 C 2.162,9.733 2.26,9.728 2.358,9.722 L 2.64,9.696 2.833,9.672 3.029,9.64 3.229,9.602 C 3.333,9.578 3.433,9.554 3.534,9.528 L 3.738,9.467 3.941,9.396 4.128,9.321 4.311,9.236 4.486,9.142 4.653,9.039 4.81,8.929 4.955,8.81 5.087,8.685 5.205,8.554 5.307,8.427 5.398,8.295 5.476,8.159 5.542,8.019 5.596,7.876 5.639,7.729 5.671,7.578 5.692,7.423 5.758,6.798 C 5.804,5.254 5.47,3.719 5.535,2.178 L 5.545,2.112 C 5.588,1.634 5.577,1.152 5.56,0.674 L 5.485,-0.222 5.463,-0.345 5.33,-0.8 5.293,-0.88 5.196,-1.047 5.157,-1.103 5.109,-1.166 5.049,-1.236 C 5.012,-1.276 4.971,-1.316 4.93,-1.357 L 4.879,-1.402 4.822,-1.45 4.755,-1.501 4.679,-1.554 4.593,-1.61 4.493,-1.669 4.379,-1.729 4.25,-1.791 4.098,-1.853 3.928,-1.914 3.738,-1.972 3.526,-2.024 3.294,-2.068 C 3.167,-2.086 3.046,-2.101 2.918,-2.114 L 2.529,-2.13 2.418,-2.132 C 1.477,-2.14 0.535,-2.141 -0.405,-2.141 l 0,0 -0.001,0 -4.668,-0.025 -2.299,0.06 -0.35,0.019 -0.339,0.022 -0.169,0.012 c -0.112,0.008 -0.224,0.017 -0.335,0.026 l -0.165,0.016 -0.164,0.017 -0.166,0.02 -0.167,0.022 -0.172,0.026 -0.534,0.103 -0.113,0.028 c -0.06,0.016 -0.121,0.033 -0.181,0.05 l -0.276,0.091 c -0.038,0.015 -0.077,0.03 -0.114,0.045 l -0.08,0.033 c -0.041,0.019 -0.083,0.038 -0.123,0.058 l -0.621,0.425 -0.08,0.086 -0.245,0.551 c -0.241,0.877 -0.62,1.737 -0.807,2.619 l -0.03,0.435 0.104,0.718 c 0.03,0.298 0.053,0.598 0.112,0.895 l 0.033,0.065 0.682,3.182 c 0.14,0.524 0.253,1.08 0.734,1.541 l 0.28,0.103 0.319,-0.056 c 0.694,-0.402 0.975,-0.97 1.215,-1.507 l 0.894,-3.263 0.034,-0.065 c 0.059,-0.297 0.082,-0.597 0.112,-0.895 l 0.103,-0.718 c 0.032,0.035 0.02,0.029 0.055,-0.005 l 0.742,-1.627 2.111,-0.003 4.665,0.079 z" />
      </g>
      <g
         transform="translate(218.5231,230.5315)"
         id="g4433">
        <path
           inkscape:connector-curvature="0"
           id="path4435"
           style="fill:#373435;fill-opacity:1;fill-rule:evenodd;stroke:none"
           d="m 0,0 c 0.005,-0.055 0.011,-0.11 0.016,-0.165 l -0.007,0.128 c -10e-4,0.01 -0.002,0.02 -0.002,0.031 0.01,-0.005 0.018,-0.02 0.023,-0.027 l 0.036,-0.04 C 0.069,-0.074 0.07,-0.075 0.072,-0.076 0.075,-0.072 0.065,-0.061 0.062,-0.058 0.045,-0.037 0.023,-0.019 0,0 M 10.782,9.096 C 10.8,9.091 10.817,9.086 10.835,9.082 10.91,9.065 11.003,9.043 11.085,9.047 l 0.009,0.002 c 0.003,0.001 0.004,0.004 0.004,0.006 -0.026,0.016 -0.074,0.021 -0.109,0.025 L 10.782,9.096 Z M 8.644,0.055 8.637,0.03 8.62,-0.069 8.614,-0.164 8.644,0.055 Z M 7.052,1.007 8.771,1.003 9.153,3.874 9.202,4.031 9.901,9.124 C 9.559,9.125 9.218,9.119 8.876,9.111 L 6.982,9.09 6.796,9.096 6.196,9.112 C 6.159,9.116 6.121,9.12 6.084,9.124 L 6.018,9.134 5.754,9.157 5.692,9.175 C 5.618,9.204 5.555,9.241 5.49,9.276 L 5.435,9.316 5.415,9.35 5.41,9.389 5.424,9.433 C 5.482,9.515 5.565,9.566 5.677,9.626 L 5.724,9.661 5.78,9.698 5.845,9.736 5.92,9.775 c 0.132,0.063 0.27,0.119 0.416,0.172 l 0.163,0.068 0.187,0.07 0.212,0.072 0.239,0.075 c 0.389,0.114 0.787,0.215 1.193,0.31 l 0.253,0.055 0.261,0.055 0.269,0.053 0.275,0.051 0.28,0.049 0.283,0.045 0.287,0.042 0.291,0.037 0.941,0.042 0.152,-0.005 0.514,-0.062 0.101,-0.021 0.107,-0.025 0.112,-0.032 0.057,-0.018 0.058,-0.02 0.06,-0.022 0.061,-0.024 0.062,-0.027 0.062,-0.029 0.125,-0.067 0.061,-0.037 c 0.03,-0.021 0.059,-0.041 0.088,-0.062 l 0.057,-0.044 0.055,-0.048 c 0.025,-0.025 0.051,-0.05 0.075,-0.075 l 0.386,-0.656 c 0.575,-1.872 0.341,-3.778 0.568,-5.666 l 0.02,-0.285 C 14.246,2.416 14.047,1.081 14.08,-0.247 l -0.009,-0.078 -0.025,-0.109 -0.039,-0.111 -0.054,-0.111 -0.066,-0.109 -0.081,-0.106 c -0.046,-0.051 -0.092,-0.1 -0.142,-0.149 l -0.109,-0.094 -0.112,-0.085 -0.117,-0.077 -0.12,-0.07 -0.12,-0.062 -0.119,-0.055 -0.116,-0.049 -0.112,-0.042 -0.218,-0.072 -0.198,-0.053 c -0.282,-0.064 -0.561,-0.108 -0.862,-0.132 l -0.204,-0.012 c -0.33,-0.011 -0.653,-0.003 -0.981,0.017 l -0.211,0.016 c -0.092,0.008 -0.186,0.017 -0.278,0.026 l -0.162,0.017 c -0.034,0.004 -0.07,0.008 -0.106,0.012 L 7.052,-2.176 5.856,-2.175 2.926,-2.16 2.689,-2.165 C 1.395,-2.242 0.118,-2.393 -1.171,-2.493 l -0.663,-0.025 -0.262,0.007 -0.25,0.021 -0.232,0.03 -0.214,0.039 -0.194,0.044 -0.176,0.049 c -0.102,0.033 -0.199,0.067 -0.296,0.103 l -0.127,0.053 c -0.219,0.1 -0.41,0.209 -0.585,0.335 l -0.108,0.085 -0.093,0.08 -0.08,0.076 -0.072,0.073 c -0.079,0.088 -0.153,0.178 -0.22,0.269 l -0.395,0.901 -0.012,0.188 0.237,2.876 0.041,0.271 0.836,4.853 c 0.209,0.799 0.409,1.654 1.115,2.363 l 0.353,0.127 0.354,-0.127 c 0.706,-0.709 0.907,-1.564 1.116,-2.363 l 0.836,-4.853 0.04,-0.271 C -0.148,2.059 -0.107,1.406 -0.06,0.753 0.928,0.865 1.924,0.958 2.926,0.991 l 2.93,0.015 1.196,10e-4 z" />
      </g>
      <g
         transform="translate(167.3408,227.0247)"
         id="g4437">
        <path
           inkscape:connector-curvature="0"
           id="path4439"
           style="fill:#373435;fill-opacity:1;fill-rule:evenodd;stroke:none"
           d="M 0,0 0.04,-0.039 C 0.05,-0.048 0.063,-0.06 0.077,-0.067 0.079,-0.064 0.069,-0.056 0.066,-0.053 L 0.051,-0.039 C 0.035,-0.026 0.017,-0.013 0,0 M 8.356,7.498 8.357,7.497 C 8.426,7.465 8.497,7.441 8.578,7.422 L 8.64,7.412 8.721,7.416 C 8.712,7.45 8.559,7.477 8.356,7.498 M 6.77,1.068 7.491,1.026 7.53,1.731 8.101,7.185 8.138,7.476 C 8.139,7.488 8.139,7.502 8.141,7.517 7.769,7.546 7.342,7.561 7.245,7.567 L 4.406,7.771 C 3.866,7.825 3.333,7.893 2.928,8.114 L 2.85,8.234 2.924,8.355 C 3.272,8.57 3.742,8.69 4.206,8.805 l 3.039,0.516 2.399,0.08 0.509,-0.082 0.122,-0.03 C 10.359,9.267 10.44,9.243 10.52,9.217 L 10.643,9.174 10.763,9.127 10.88,9.076 10.995,9.021 11.104,8.961 11.208,8.9 11.305,8.837 c 0.092,-0.066 0.176,-0.134 0.256,-0.205 l 0.203,-0.217 0.109,-0.141 0.091,-0.143 0.077,-0.147 0.063,-0.15 C 12.179,7.618 12.223,7.405 12.249,7.185 L 12.82,1.731 12.836,1.636 C 12.882,0.9 12.84,0.157 12.919,-0.577 l -0.945,-1.188 c -0.307,-0.149 -0.627,-0.26 -1.001,-0.346 l -0.13,-0.026 -0.127,-0.023 -0.12,-0.019 C 10.539,-2.187 10.481,-2.194 10.424,-2.201 L 10.064,-2.234 9.88,-2.243 9.712,-2.247 C 9.442,-2.25 9.177,-2.242 8.909,-2.227 L 7.971,-2.164 7.978,-2.165 7.741,-2.164 7.506,-2.16 7.272,-2.154 7.04,-2.145 C 6.729,-2.131 6.419,-2.113 6.11,-2.092 L 2.837,-1.834 1.091,-1.768 0.915,-1.771 0.574,-1.791 C 0.527,-1.795 0.47,-1.806 0.423,-1.805 0.263,-1.89 0.105,-1.975 -0.055,-2.06 l -2.081,-0.435 c -0.397,0.026 -0.749,0.086 -1.099,0.195 l -0.103,0.035 -0.089,0.033 c -0.039,0.016 -0.078,0.032 -0.116,0.048 l -0.068,0.031 c -0.066,0.031 -0.13,0.063 -0.192,0.097 l -0.087,0.05 -0.073,0.046 c -0.04,0.026 -0.081,0.054 -0.12,0.081 l -0.094,0.072 c -0.027,0.021 -0.053,0.044 -0.078,0.065 l -0.068,0.062 -0.06,0.057 -0.055,0.056 -0.051,0.054 -0.049,0.053 c -0.046,0.053 -0.09,0.106 -0.134,0.159 l -0.631,0.91 -0.702,1.199 -0.003,0.031 -0.161,0.459 c -0.057,0.596 0.134,1.104 0.498,1.658 l 0.404,0.572 0.067,0.1 c 0.042,0.067 0.083,0.134 0.12,0.201 l 0.136,0.733 c 0.037,0.295 0.066,0.59 0.144,0.883 l 0.043,0.062 1.254,2.308 c 0.281,0.34 0.55,0.699 0.981,0.985 l 0.245,0.064 0.245,-0.067 C -1.587,8.45 -1.486,8.031 -1.43,7.608 L -1.261,5.507 -1.218,5.445 C -1.141,5.152 -1.111,4.857 -1.074,4.562 L -0.939,3.829 -0.933,3.578 -0.957,3.338 C -1.037,2.944 -1.2,2.568 -1.355,2.184 L -1.463,1.795 c -0.003,-0.044 -0.01,-0.11 0.042,-0.147 l 0.019,-0.002 c 0.014,0.008 0.314,-0.207 0.537,-0.466 0.408,0.067 0.831,0.114 1.28,0.145 l 0.383,0.02 C 1.675,1.374 2.539,1.353 3.414,1.309 L 6.77,1.068 Z" />
      </g>
      <g
         transform="translate(186.2302,256.9728)"
         id="g4441">
        <path
           inkscape:connector-curvature="0"
           id="path4443"
           style="fill:#9e655f;fill-opacity:1;fill-rule:nonzero;stroke:none"
           d="m 0,0 c 5.362,-3.373 11.125,-4.504 17.334,-3.023 4.154,0.991 7.718,3.139 10.834,5.957 2.769,2.504 4.579,5.601 4.57,10.073 0.102,1.794 -0.724,3.882 -1.976,5.793 -1.85,2.824 -4.386,4.919 -7.4,6.401 -3.956,1.945 -8.118,2.831 -12.568,2.564 C 8.204,27.61 5.656,27.361 3.16,26.671 -0.214,25.736 -3.189,24.1 -5.23,21.187 -7.751,17.589 -8.166,13.569 -7.064,9.383 -5.992,5.309 -3.542,2.228 0,0" />
      </g>
      <g
         transform="translate(199.7935,255.2257)"
         id="g4445">
        <path
           inkscape:connector-curvature="0"
           id="path4447"
           style="fill:#7f554a;fill-opacity:1;fill-rule:nonzero;stroke:none"
           d="m 0,0 c -1.112,0.206 -2.428,0.278 -3.6,0.967 -1.701,1 -2.739,3.653 -2.088,5.394 0.407,1.088 1.235,1.807 2.211,2.323 1.161,0.613 2.323,1.22 3.567,1.682 2.289,0.849 4.215,2.304 6.028,3.91 0.997,0.884 2.134,1.546 3.357,2.039 2.181,0.879 4.542,-0.494 5.024,-2.792 0.695,-3.317 -0.436,-6.12 -2.343,-8.71 C 11.561,4.006 10.632,3.562 9.784,3.072 6.811,1.352 3.594,0.367 0,0" />
      </g>
      <g
         transform="translate(185.5866,270.718)"
         id="g4449">
        <path
           inkscape:connector-curvature="0"
           id="path4451"
           style="fill:#ae8a96;fill-opacity:1;fill-rule:nonzero;stroke:none"
           d="m 0,0 c -1.342,-0.032 -2.626,0.038 -3.325,1.369 -0.697,1.33 -0.472,2.661 0.286,3.905 1.966,3.226 4.934,5.06 8.608,5.255 C 8.731,10.697 10.012,8.297 8.808,5.891 6.997,2.273 3.979,0.38 0,0" />
      </g>
      <g
         transform="translate(186.3136,271.6525)"
         id="g4453">
        <path
           inkscape:connector-curvature="0"
           id="path4455"
           style="fill:#fefefe;fill-opacity:1;fill-rule:nonzero;stroke:none"
           d="M 0,0 C -0.612,0.032 -0.888,0.028 -1.159,0.063 -2.769,0.27 -3.666,1.581 -3.195,3.13 -2.488,5.453 -0.74,6.821 1.319,7.872 2.108,8.274 2.972,8.473 3.833,8.613 4.971,8.798 6.066,8.598 6.8,7.621 7.542,6.633 7.401,5.503 6.845,4.512 5.282,1.724 2.861,0.234 0,0" />
      </g>
      <g
         transform="translate(140.7658,185.4826)"
         id="g4457">
        <path
           inkscape:connector-curvature="0"
           id="path4459"
           style="fill:#373435;fill-opacity:1;fill-rule:nonzero;stroke:none"
           d="m 0,0 c -0.146,-1.172 -0.332,-2.342 -0.669,-3.482 -0.169,-0.571 -0.386,-1.116 -0.688,-1.629 -1.263,-2.143 -3.092,-2.908 -5.495,-2.276 -1.194,0.314 -2.303,0.845 -3.336,1.509 -1.031,0.662 -2.086,1.312 -3.01,2.107 -3.202,2.756 -6.964,4.425 -10.887,5.817 -7.886,2.8 -15.813,2.854 -23.773,0.368 -2.101,-0.657 -4.062,-1.664 -6.02,-2.658 -3.238,-1.644 -6.491,-3.262 -9.636,-5.085 -0.876,-0.508 -1.771,-0.982 -2.775,-1.215 -1.671,-0.387 -2.768,0.12 -3.529,1.671 -0.528,1.077 -0.693,2.253 -0.949,3.407 -0.621,2.807 -0.496,5.636 -0.243,8.462 0.406,4.547 0.926,9.081 1.952,13.539 1.128,4.901 2.613,9.705 3.993,14.537 2.158,7.563 4.934,14.916 7.48,22.347 0.219,0.638 0.51,0.98 1.225,1.011 1.384,0.061 2.765,0.202 4.183,0.312 0.097,-1.046 0.129,-2.017 0.287,-2.967 0.829,-4.974 3.738,-8.387 8.105,-10.689 0.481,-0.253 0.951,-0.528 1.426,-0.793 3.19,-1.386 6.461,-2.484 9.974,-2.614 2.874,-0.107 5.632,0.517 8.261,1.62 3.618,1.517 6.652,3.804 8.926,7.052 1.429,2.042 1.827,4.31 1.707,6.742 -0.081,1.637 -0.034,1.639 1.639,1.469 0.72,0.167 1.03,-0.195 1.31,-0.83 2.241,-5.079 4.007,-10.305 5.211,-15.731 C -3.794,35.073 -2.225,28.154 -0.83,21.194 0.58,14.161 0.882,7.109 0,0 m -73.343,24.126 c -0.158,0.139 -0.327,0.274 -0.454,0.44 -0.768,1.001 -1.69,1.477 -2.935,0.894 -0.527,-0.246 -0.838,-0.024 -1.153,0.413 -1.333,1.85 -2.699,3.675 -4.047,5.514 -0.25,0.341 -0.446,0.715 -0.559,1.128 -0.241,0.885 -0.107,1.335 0.655,1.841 3.378,2.241 6.714,4.548 9.928,7.012 1.998,1.531 3.689,-0.043 3.858,-1.843 0.016,-0.167 0.002,-0.337 0.002,-0.555 -0.11,-1.259 -0.404,-2.534 -0.737,-3.798 -0.925,-3.508 -1.859,-7.012 -2.799,-10.515 -0.307,-1.144 -0.879,-1.31 -1.759,-0.531 m 25.47,40.072 c 1.568,2.238 3.854,3.495 6.446,4.213 1.917,0.53 3.875,0.722 5.865,0.841 3.418,0.204 6.616,-0.476 9.656,-1.971 2.315,-1.138 4.263,-2.748 5.684,-4.917 0.963,-1.468 1.597,-3.072 1.519,-4.45 0.007,-3.437 -1.384,-5.816 -3.512,-7.74 -2.394,-2.164 -5.132,-3.815 -8.323,-4.576 -4.77,-1.138 -9.197,-0.268 -13.317,2.323 -2.721,1.711 -4.603,4.079 -5.427,7.208 -0.847,3.216 -0.528,6.304 1.409,9.069 M -6.66,56.586 c -0.637,2.495 -1.774,4.843 -2.811,7.199 -5.191,11.797 -10.738,23.429 -16.432,34.99 -1.941,3.942 -3.191,6.614 -5.039,10.983 -0.428,1.01 -0.896,2.352 -1.58,3.412 -0.8,1.239 -1.634,0.912 -2.303,-0.353 -1.76,-3.331 -3.517,-6.913 -5.198,-10.37 -5.97,-12.273 -11.557,-23.301 -16.653,-35.971 -0.629,-1.565 -1.872,-4.241 -2.53,-5.804 -1.191,-2.828 -2.58,-6.095 -3.878,-8.903 -1.066,-2.303 -2.663,-4.094 -4.799,-5.428 -1.613,-1.008 -3.234,-2.003 -4.845,-3.013 -4.046,-2.537 -8.095,-5.07 -12.061,-7.733 -1.219,-0.819 -1.369,-1.282 -0.959,-2.669 0.304,-1.027 0.875,-1.917 1.449,-2.806 1.076,-1.669 2.196,-3.312 3.042,-5.119 0.546,-1.165 0.793,-2.261 -0.087,-3.443 -0.589,-0.79 -0.469,-0.962 0.254,-1.746 0.172,-0.187 0.332,-0.389 0.528,-0.548 0.499,-0.407 0.663,-0.909 0.655,-1.555 -0.016,-1.225 0.022,-2.454 0.102,-3.677 0.109,-1.657 -0.085,-1.446 -1.329,-1.365 -1.639,0.106 -2.745,-0.948 -4.048,-1.587 -0.159,-0.078 -0.231,-0.219 -0.296,-0.385 -0.527,-1.327 -0.343,-2.131 0.815,-2.997 1.874,-1.402 3.954,-2.262 6.34,-2.218 0.761,0.014 1.526,0.004 2.281,0.085 0.543,0.059 0.782,-0.125 0.848,-0.641 0.108,-0.838 0.242,-1.673 0.35,-2.511 0.351,-2.739 0.961,-5.417 2.126,-7.928 1.187,-2.559 3.168,-4.001 6.078,-3.981 1.427,0.011 2.736,0.355 3.954,1.145 3.548,2.304 7.224,4.381 11.115,6.06 4.098,1.769 8.316,3.069 12.811,3.317 3.052,0.168 6.091,0.009 9.109,-0.427 4.885,-0.707 9.254,-2.581 12.949,-5.914 0.785,-0.708 1.579,-1.407 2.377,-2.1 0.927,-0.805 1.883,-1.572 2.966,-2.164 3.261,-1.78 6.543,-1.724 9.837,-0.099 1.098,0.542 1.93,1.368 2.462,2.47 1.089,2.26 1.833,4.627 2.178,7.118 0.139,1.003 0.626,5.934 0.61,6.958 -0.361,23.281 -7.73,39.319 -10.388,49.718" />
      </g>
      <g
         transform="translate(135.7559,226.9651)"
         id="g4461">
        <path
           inkscape:connector-curvature="0"
           id="path4463"
           style="fill:#ef4141;fill-opacity:1;fill-rule:nonzero;stroke:none"
           d="m 0,0 c -1.403,5.378 -3.291,11.171 -5.532,16.25 -0.28,0.634 -0.59,0.997 -1.31,0.829 -1.673,0.171 -1.72,0.169 -1.64,-1.469 0.121,-2.432 -0.277,-4.699 -1.706,-6.742 -2.274,-3.248 -5.309,-5.535 -8.926,-7.051 -2.63,-1.103 -5.387,-1.727 -8.261,-1.621 -3.513,0.131 -6.784,1.229 -9.974,2.615 -0.475,0.265 -0.945,0.539 -1.426,0.793 -4.367,2.301 -7.276,5.714 -8.105,10.689 -0.159,0.95 -0.19,1.92 -0.287,2.966 -1.418,-0.11 -2.799,-0.25 -4.183,-0.311 -0.715,-0.032 -1.006,-0.373 -1.225,-1.012 -2.546,-7.431 -5.322,-14.784 -7.481,-22.346 -1.379,-4.833 -2.864,-9.636 -3.992,-14.538 -1.026,-4.458 -1.546,-8.991 -1.952,-13.539 -0.253,-2.826 -0.378,-5.654 0.243,-8.461 0.255,-1.154 0.42,-2.331 0.949,-3.407 0.761,-1.551 1.858,-2.059 3.528,-1.671 1.005,0.233 1.9,0.707 2.776,1.215 3.145,1.823 6.398,3.441 9.636,5.085 1.958,0.993 3.919,2.001 6.02,2.657 7.96,2.486 15.887,2.432 23.772,-0.367 3.924,-1.393 7.686,-3.062 10.888,-5.817 0.924,-0.796 1.979,-1.446 3.01,-2.107 1.033,-0.664 2.141,-1.195 3.336,-1.51 2.402,-0.632 4.232,0.134 5.494,2.276 0.302,0.513 0.52,1.058 0.689,1.63 0.337,1.14 0.523,2.309 0.669,3.482 0.882,7.108 0.769,14.958 -0.641,21.991 C 2.974,-12.532 2.016,-7.729 0,0" />
      </g>
      <g
         transform="translate(96.911,233.4032)"
         id="g4465">
        <path
           inkscape:connector-curvature="0"
           id="path4467"
           style="fill:#9e655f;fill-opacity:1;fill-rule:nonzero;stroke:none"
           d="m 0,0 c 4.119,-2.591 8.547,-3.46 13.317,-2.323 3.191,0.762 5.929,2.412 8.323,4.577 2.128,1.924 3.518,4.303 3.512,7.739 0.078,1.378 -0.557,2.982 -1.519,4.451 -1.421,2.169 -3.37,3.778 -5.685,4.917 -3.039,1.494 -6.237,2.175 -9.655,1.97 C 6.303,21.212 4.345,21.021 2.428,20.49 -0.165,19.772 -2.45,18.515 -4.018,16.278 -5.955,13.513 -6.274,10.424 -5.427,7.209 -4.603,4.079 -2.721,1.712 0,0" />
      </g>
      <g
         transform="translate(128.9139,244.0442)"
         id="g4469">
        <path
           inkscape:connector-curvature="0"
           id="path4471"
           style="fill:#914646;fill-opacity:1;fill-rule:nonzero;stroke:none"
           d="m 0,0 c -0.417,-0.045 -0.834,-0.09 -1.282,-0.138 0,-0.729 -0.036,-1.469 0.007,-2.204 0.169,-2.93 -1.026,-5.353 -2.859,-7.494 -3.345,-3.908 -7.657,-6.256 -12.665,-7.111 -4.842,-0.827 -9.467,0.102 -13.708,2.679 0.498,0.122 0.894,-0.195 1.323,-0.332 4.078,-1.3 8.194,-1.537 12.343,-0.417 4.092,1.105 7.394,3.429 10.037,6.707 1.283,1.592 1.78,3.518 2.185,5.469 0.154,0.741 0.295,1.487 0.307,2.251 0.007,0.424 0.157,0.763 0.66,0.737 C -2.435,0.084 -1.208,0.268 0,0" />
      </g>
      <g
         transform="translate(107.3312,232.061)"
         id="g4473">
        <path
           inkscape:connector-curvature="0"
           id="path4475"
           style="fill:#7f554a;fill-opacity:1;fill-rule:nonzero;stroke:none"
           d="M 0,0 C -0.854,0.158 -1.865,0.214 -2.765,0.743 -4.073,1.511 -4.87,3.55 -4.37,4.887 c 0.313,0.836 0.949,1.388 1.699,1.785 0.891,0.47 1.785,0.937 2.74,1.291 1.758,0.653 3.238,1.771 4.631,3.005 0.766,0.679 1.64,1.187 2.579,1.566 1.676,0.676 3.49,-0.379 3.86,-2.145 C 11.673,7.841 10.804,5.687 9.339,3.698 8.882,3.078 8.168,2.737 7.517,2.36 5.233,1.039 2.761,0.282 0,0" />
      </g>
      <g
         transform="translate(96.4166,243.9632)"
         id="g4477">
        <path
           inkscape:connector-curvature="0"
           id="path4479"
           style="fill:#ae8a96;fill-opacity:1;fill-rule:nonzero;stroke:none"
           d="m 0,0 c -1.031,-0.025 -2.018,0.029 -2.554,1.052 -0.536,1.021 -0.363,2.044 0.219,3 C -0.824,6.53 1.456,7.939 4.278,8.089 6.708,8.218 7.692,6.374 6.767,4.525 5.376,1.746 3.057,0.292 0,0" />
      </g>
      <g
         transform="translate(96.9751,244.6811)"
         id="g4481">
        <path
           inkscape:connector-curvature="0"
           id="path4483"
           style="fill:#fefefe;fill-opacity:1;fill-rule:nonzero;stroke:none"
           d="m 0,0 c -0.47,0.024 -0.682,0.022 -0.89,0.048 -1.237,0.16 -1.927,1.166 -1.565,2.357 0.543,1.784 1.887,2.836 3.469,3.642 C 1.619,6.356 2.283,6.51 2.945,6.617 3.819,6.759 4.66,6.606 5.224,5.855 5.794,5.096 5.686,4.228 5.259,3.466 4.058,1.325 2.198,0.18 0,0" />
      </g>
      <g
         transform="translate(102.2903,194.2769)"
         id="g4485">
        <path
           inkscape:connector-curvature="0"
           id="path4487"
           style="fill:#373435;fill-opacity:1;fill-rule:evenodd;stroke:none"
           d="M 0,0 C 0.005,-0.165 0.02,-0.33 0.049,-0.492 L 0.032,-0.007 0,0 Z M 8.843,8.745 8.896,8.637 C 8.964,8.618 9.029,8.602 9.106,8.603 9.134,8.605 9.152,8.607 9.167,8.619 L 9.171,8.628 C 9.167,8.644 9.152,8.654 9.131,8.665 L 9.064,8.693 C 8.994,8.714 8.919,8.731 8.843,8.745 M 6.517,0.145 C 6.494,0.135 6.473,0.124 6.453,0.112 L 6.438,0.101 C 6.438,0.1 6.438,0.1 6.441,0.1 6.469,0.109 6.494,0.129 6.513,0.143 L 6.517,0.145 Z M 2.738,0.314 6.678,0.3 c 0.093,0.246 0.78,2.077 0.78,2.077 l 0.376,3.128 0.065,0.22 0.177,0.956 0.012,0.021 C 8.121,6.848 8.125,6.995 8.164,7.14 l 0.012,0.019 0.425,1.62 C 8.45,8.795 8.295,8.805 8.144,8.814 L 5.931,9.072 5.784,9.309 5.84,9.411 c 0.419,0.325 1.113,0.481 1.777,0.637 l 1.014,0.187 0.277,0.027 0.298,0.02 c 0.166,0.004 0.325,0.006 0.492,0.004 l 0.227,-0.011 0.157,-0.013 0.162,-0.018 0.165,-0.022 0.169,-0.029 c 0.087,-0.018 0.172,-0.036 0.258,-0.056 l 0.173,-0.046 0.162,-0.05 0.16,-0.057 0.156,-0.064 0.152,-0.071 0.144,-0.078 0.137,-0.084 0.127,-0.09 0.118,-0.096 0.26,-0.643 C 12.594,8.293 12.736,7.727 12.862,7.159 L 12.873,7.14 c 0.039,-0.145 0.043,-0.292 0.076,-0.438 l 0.012,-0.021 0.178,-0.956 0.063,-0.22 C 13.41,4.466 13.467,3.419 13.579,2.377 l -0.706,-2.843 0.007,-0.026 -0.467,-0.89 C 12.122,-1.673 11.791,-1.939 11.387,-2.191 L 11.207,-2.294 11.019,-2.392 10.821,-2.487 10.615,-2.578 10.4,-2.663 10.177,-2.742 9.947,-2.814 9.714,-2.881 9.246,-2.99 8.788,-3.071 8.354,-3.126 C 7.849,-3.173 7.359,-3.192 6.847,-3.195 l -4.109,-0.016 -0.479,10e-4 -0.918,10e-4 -0.917,0.004 -1.757,0.01 -0.079,0.002 -2.406,0.533 c -0.284,0.154 -0.598,0.302 -0.863,0.465 l -0.896,0.489 -0.958,1.278 c 0.028,0.447 -0.041,0.929 0.076,1.371 l 0.211,2.391 0.102,0.809 c 0.029,0.343 0.052,0.686 0.111,1.028 l 0.016,0.037 C -6.19,5.756 -6.352,6.305 -6.5,6.855 l 0.187,1.403 c 0.068,0.405 0.121,0.815 0.28,1.214 l 0.086,0.078 1.364,1.709 c 0.284,0.26 0.581,0.511 1.082,0.666 l 0.254,0.016 0.223,-0.065 c 0.348,-0.245 0.436,-0.535 0.507,-0.833 l 0.1,-1.675 c 0.047,0.073 -0.025,0.114 0.119,0.104 l 0.282,-1.214 c 0.058,-0.337 0.03,-0.783 0.258,-1.099 0.02,0.104 -0.052,0.163 0.083,0.086 l 1.1,-1.65 0.116,-0.424 C -0.4,4.829 -0.377,4.486 -0.348,4.143 l 0.102,-0.809 0.211,-2.391 0.012,-0.06 c 0.016,-0.191 0.016,-0.386 0.016,-0.58 0.143,0.002 0.287,0.003 0.431,0.005 l 0.917,0.004 0.918,0.002 0.479,0 z" />
      </g>
      <g
         transform="translate(110.0561,215.1634)"
         id="g4489">
        <path
           inkscape:connector-curvature="0"
           id="path4491"
           style="fill:#373435;fill-opacity:1;fill-rule:evenodd;stroke:none"
           d="m 0,0 c -0.011,-0.015 -0.02,-0.031 -0.028,-0.047 -0.008,-0.016 -0.016,-0.032 -0.019,-0.049 0,-0.004 -0.002,-0.011 0.004,-0.014 0.01,0.005 0.012,0.013 0.015,0.02 l 0.015,0.031 C -0.008,-0.039 -0.004,-0.019 0,0 m -5.318,1.277 1.089,0.128 0.254,0.013 0.18,0.003 c 1.203,0.239 2.395,0.207 3.623,0.102 l -0.027,0.238 c 0.057,0.416 0.122,0.833 0.194,1.249 l 0.12,0.613 c 0.034,0.255 0.06,0.512 0.128,0.765 L 0.282,4.444 0.397,4.923 1.083,6.791 1.154,6.867 C 1.164,6.879 1.173,6.889 1.188,6.9 1.197,6.906 1.206,6.911 1.218,6.916 1.239,6.923 1.261,6.928 1.284,6.932 1.314,6.939 1.338,6.947 1.36,6.961 L 1.371,6.972 C 1.377,6.988 1.376,7 1.368,7.016 L 0.044,7.703 0,7.792 0.045,7.881 C 0.593,8.262 1.781,8.279 2.589,8.209 L 3.154,8.07 3.293,8.022 3.428,7.968 3.559,7.909 3.684,7.845 3.791,7.783 3.891,7.718 3.984,7.65 4.07,7.58 4.151,7.508 4.224,7.434 4.291,7.359 4.351,7.283 4.538,7.039 4.679,6.782 C 4.929,6.17 4.986,5.544 5.108,4.923 L 5.223,4.444 5.262,4.388 C 5.331,4.135 5.357,3.878 5.39,3.623 L 5.511,3.01 5.679,1.911 C 5.936,1.536 6.065,1.129 6.179,0.738 l 0.138,-0.742 0.004,-0.15 C 6.319,-0.233 6.313,-0.311 6.307,-0.39 L 6.219,-0.77 C 6.202,-0.816 6.182,-0.863 6.163,-0.909 L 6.118,-1.005 6.062,-1.105 5.915,-1.313 5.821,-1.422 5.709,-1.535 C 5.644,-1.594 5.576,-1.652 5.505,-1.71 L 5.339,-1.829 C 5.241,-1.89 5.143,-1.948 5.039,-2.006 L 1.225,-2.307 c -0.592,0.138 -1.177,0.313 -1.785,0.431 -0.139,-0.113 -0.207,-0.049 -0.462,-0.033 l -0.503,0.03 c -0.566,-0.123 -1.114,-0.176 -1.749,-0.204 -0.02,-0.003 -0.039,-0.006 -0.059,-0.009 l -0.124,-0.021 -0.162,-0.03 -0.188,-0.036 C -4.188,-2.255 -4.564,-2.338 -4.94,-2.422 l -1.792,-0.424 -0.033,-0.006 -1.576,-0.181 c -0.575,0.008 -1.182,-0.012 -1.755,0.021 l -3.289,1.76 c 0.022,0.297 -0.029,0.622 0.056,0.914 l 0.039,0.479 0.006,0.021 c 0.013,0.145 0.017,0.291 0.032,0.437 l 0.006,0.02 0.048,0.478 0.102,0.811 c 0.029,0.342 0.054,0.685 0.115,1.026 l 0.036,0.076 0.363,1.913 0.103,0.406 c 0.028,0.171 0.052,0.343 0.106,0.513 l 0.03,0.037 2.158,2.42 c 0.427,0.355 0.874,0.706 1.586,0.915 l 0.34,0.013 0.274,-0.105 c 0.394,-0.373 0.418,-0.793 0.42,-1.213 l -0.37,-2.351 0.119,0.284 C -7.762,5.672 -7.739,5.5 -7.71,5.329 L -7.609,4.923 -7.245,3.01 -7.209,2.934 C -7.148,2.593 -7.124,2.25 -7.094,1.908 l 0.101,-0.811 0.016,-0.151 0.748,0.165 0.299,0.058 0.303,0.056 0.309,0.052 z" />
      </g>
      <g
         transform="translate(145.9769,112.7324)"
         id="g4493">
        <path
           inkscape:connector-curvature="0"
           id="path4495"
           style="fill:#373435;fill-opacity:1;fill-rule:nonzero;stroke:none"
           d="m 0,0 12.084,0 0,-41.432 c 0,-5.81 -1.617,-10.468 -4.85,-13.976 -3.234,-3.508 -7.399,-5.261 -12.496,-5.261 -5.48,0 -9.741,1.63 -12.783,4.892 -3.042,3.26 -4.562,7.795 -4.562,13.605 l 12.126,0 c 0,-5.645 1.739,-8.468 5.219,-8.468 3.508,0 5.262,3.261 5.262,9.783 L 0,0 Z" />
      </g>
      <g
         transform="translate(210.6898,112.7324)"
         id="g4497">
        <path
           inkscape:connector-curvature="0"
           id="path4499"
           style="fill:#373435;fill-opacity:1;fill-rule:nonzero;stroke:none"
           d="m 0,0 0,-41.432 c -0.056,-6.221 -1.768,-10.982 -5.138,-14.284 -3.371,-3.302 -8.208,-4.953 -14.509,-4.953 -6.413,0 -11.311,1.671 -14.695,5.015 -3.385,3.343 -5.077,8.179 -5.077,14.509 l 0,41.145 12.167,0 0,-41.186 c 0,-3.398 0.548,-5.823 1.645,-7.275 1.095,-1.453 3.082,-2.179 5.96,-2.179 2.876,0 4.849,0.72 5.918,2.159 1.069,1.438 1.617,3.802 1.644,7.09 L -12.085,0 0,0 Z" />
      </g>
      <g
         transform="translate(264.7581,59.6679)"
         id="g4501">
        <path
           inkscape:connector-curvature="0"
           id="path4503"
           style="fill:#373435;fill-opacity:1;fill-rule:nonzero;stroke:none"
           d="m 0,0 c -2.33,-2.521 -5.187,-4.419 -8.57,-5.693 -3.385,-1.274 -7.091,-1.911 -11.118,-1.911 -6.879,0 -12.223,2.13 -16.032,6.391 -3.808,4.261 -5.768,10.461 -5.877,18.6 l 0,10.769 c 0,8.247 1.801,14.598 5.405,19.052 3.603,4.452 8.858,6.679 15.763,6.679 6.494,0 11.393,-1.603 14.695,-4.809 C -2.433,45.872 -0.521,40.843 0,33.993 l -11.756,0 c -0.329,3.808 -1.124,6.404 -2.384,7.789 -1.26,1.383 -3.234,2.075 -5.919,2.075 -3.261,0 -5.631,-1.191 -7.111,-3.576 -1.479,-2.384 -2.247,-6.179 -2.302,-11.385 l 0,-10.852 c 0,-5.453 0.816,-9.419 2.447,-11.899 1.63,-2.48 4.308,-3.72 8.035,-3.72 2.384,0 4.316,0.479 5.796,1.439 l 1.068,0.74 0,10.974 -8.467,0 0,9.125 L 0,24.703 0,0 Z" />
      </g>
    </g>
    <circle
       style="fill:none;fill-opacity:1;stroke:none;stroke-width:2;stroke-linecap:round;stroke-linejoin:miter;stroke-miterlimit:4;stroke-dasharray:none;stroke-dashoffset:13;stroke-opacity:1"
       id="path5228"
       cx="-550.7569"
       cy="-640.48743"
       r="239.73747"
       transform="matrix(-0.94083641,-0.33886112,0.33886112,-0.94083641,0,0)" />
    <text
       xml:space="preserve"
       style="font-style:normal;font-weight:normal;font-size:107.5px;line-height:125%;font-family:sans-serif;letter-spacing:0px;word-spacing:0px;fill:#373435;fill-opacity:1;stroke:none;stroke-width:1px;stroke-linecap:butt;stroke-linejoin:miter;stroke-opacity:1"
       id="text5230"
       sodipodi:linespacing="125%"><textPath
         xlink:href="#path5228"
         id="textPath5234"
         style="font-style:normal;font-variant:normal;font-weight:bold;font-stretch:normal;font-size:106.25px;font-family:Arial;-inkscape-font-specification:'Arial Bold';fill:#373435;fill-opacity:1">WSPIERAM</textPath></text>
    <g
       style="display:inline"
       id="g4505"
       transform="matrix(1.25,0,0,-1.25,52.043661,1046.3344)"
       inkscape:export-xdpi="88"
       inkscape:export-ydpi="88">
      <g
         id="g4507"
         clip-path="url(#clipPath4509)">
        <g
           id="g4513"
           transform="translate(339.9866,205.8224)">
          <path
             d="m 0,0 c -0.757,-0.782 -1.587,-1.205 -2.835,-1.112 -1.448,0.107 -1.835,-0.266 -2.172,-1.521 -0.022,-0.079 -0.05,-0.157 -0.069,-0.237 -0.379,-1.539 -0.584,-1.65 -2.269,-1.405 -0.51,0.075 -0.802,0.252 -0.979,0.7 -1.38,3.495 -2.768,6.989 -3.638,10.623 -0.173,0.723 -0.121,1.462 -0.12,2.196 0.014,1.68 0.249,3.333 0.794,4.944 0.132,0.389 0.282,0.777 0.478,1.142 0.493,0.917 0.645,0.98 1.653,0.447 3.672,-1.94 7.009,-4.257 9.834,-7.134 C 0.767,8.551 0.853,8.455 0.937,8.359 2.923,6.07 3.337,4.821 1.405,1.65 1.032,1.039 0.509,0.526 0,0 m -10.72,-26.415 c -0.157,-1.131 -0.358,-2.258 -0.722,-3.357 -0.182,-0.551 -0.416,-1.077 -0.741,-1.571 -1.361,-2.066 -3.333,-2.804 -5.922,-2.194 -1.288,0.303 -2.483,0.815 -3.597,1.455 -1.11,0.638 -2.248,1.264 -3.244,2.031 -3.451,2.657 -7.506,4.266 -11.735,5.608 -8.499,2.699 -17.044,2.751 -25.622,0.355 -2.265,-0.633 -4.379,-1.605 -6.489,-2.563 -3.491,-1.585 -6.997,-3.145 -10.387,-4.902 -0.944,-0.49 -1.909,-0.947 -2.991,-1.171 -1.801,-0.374 -2.984,0.115 -3.804,1.611 -0.569,1.038 -0.747,2.172 -1.022,3.284 -0.67,2.707 -0.535,5.433 -0.263,8.158 0.438,4.384 0.999,8.755 2.105,13.053 1.216,4.725 1.626,9.356 3.112,14.016 2.327,7.29 5.319,14.379 8.064,21.544 0.235,0.615 1.74,0.944 2.51,0.975 1.492,0.058 2.981,0.194 4.508,0.3 0.106,-1.008 0.139,-1.944 0.31,-2.86 0.893,-4.796 4.029,-8.087 8.736,-10.305 0.519,-0.245 1.025,-0.509 1.537,-0.765 3.439,-1.336 6.964,-2.395 10.751,-2.52 3.098,-0.103 6.069,0.498 8.904,1.562 3.899,1.462 7.17,3.667 9.62,6.798 1.541,1.969 1.969,4.155 1.84,6.5 -0.087,1.579 -0.036,1.581 1.767,1.416 0.776,0.162 1.11,-0.187 1.412,-0.8 2.415,-4.896 4.319,-9.935 5.617,-15.166 1.656,-6.679 3.347,-13.35 4.851,-20.059 1.52,-6.781 1.846,-13.58 0.895,-20.433 m -51.6,61.892 c 1.69,2.158 4.153,3.37 6.948,4.062 2.066,0.511 4.177,0.696 6.321,0.811 3.685,0.197 7.132,-0.459 10.408,-1.9 2.495,-1.098 4.595,-2.649 6.127,-4.741 1.037,-1.415 1.72,-2.962 1.636,-4.29 0.008,-3.313 -1.491,-5.607 -3.784,-7.462 -2.581,-2.087 -5.532,-3.678 -8.972,-4.412 -5.141,-1.097 -9.913,-0.259 -14.353,2.239 -2.933,1.651 -4.962,3.933 -5.85,6.95 -0.912,3.1 -0.569,6.078 1.519,8.743 M 6.631,-15.935 c -0.817,0.266 -1.668,0.415 -2.536,0.458 -0.627,0.031 -1.01,0.188 -0.989,0.865 0.06,1.937 -0.802,3.574 -2.232,4.979 -0.479,0.471 -0.58,0.933 -0.477,1.552 0.201,1.208 0.34,2.429 0.405,3.648 0.042,0.782 0.344,1.385 0.917,1.965 1.417,1.436 2.739,2.949 4.178,4.368 0.733,0.722 1.071,1.49 0.955,2.323 0.066,1.635 -0.525,2.898 -1.805,3.913 -5.218,4.137 -10.398,8.315 -16.027,12.012 -3.165,2.078 -5.435,4.496 -6.351,7.981 -0.623,2.371 -1.289,4.679 -2.407,6.95 -5.595,11.374 -9.026,18.405 -16.939,29.22 -2.562,3.501 -4.409,5.581 -6.55,7.286 -0.852,0.68 -2.28,1.759 -3.504,2.292 -0.966,0.42 -2.502,0.345 -3.277,-0.084 -2.73,-1.513 -4.691,-3.079 -6.464,-5.184 -7.032,-8.35 -9.822,-12.799 -13.245,-19.05 -1.41,-2.574 -3.933,-7.899 -5.06,-10.715 -1.127,-2.813 -2.902,-6.548 -3.939,-9.396 -6.926,-19.029 -9.676,-28.945 -12.383,-45.894 -0.483,-3.024 -0.604,-5.4 -0.292,-7.643 0.368,-2.642 1.035,-5.222 2.291,-7.643 1.28,-2.468 3.415,-3.858 6.552,-3.838 1.538,0.01 2.949,0.342 4.261,1.104 3.825,2.221 7.787,4.224 11.981,5.842 4.417,1.705 8.964,2.959 13.808,3.198 3.29,0.162 6.565,0.009 9.818,-0.412 5.265,-0.681 9.974,-2.488 13.957,-5.701 0.847,-0.683 1.702,-1.357 2.563,-2.025 0.999,-0.776 2.029,-1.516 3.196,-2.086 3.515,-1.717 7.053,-1.662 10.603,-0.096 1.184,0.522 2.081,1.319 2.653,2.382 1.175,2.178 1.977,4.46 2.349,6.862 0.149,0.966 0.146,1.958 0.502,2.893 0.319,0.838 0.704,1.052 1.63,0.834 1.842,-0.434 3.616,-0.218 5.352,0.386 2.051,0.714 3.923,1.719 5.681,2.894 0.702,0.469 1.277,1.046 1.641,1.771 0.489,0.972 0.288,1.431 -0.816,1.789"
             style="fill:#373435;fill-opacity:1;fill-rule:nonzero;stroke:none"
             id="path4515"
             inkscape:connector-curvature="0" />
        </g>
        <g
           id="g4517"
           transform="translate(323.5202,219.8997)">
          <path
             d="m 0,0 c -1.297,5.231 -2.799,9.884 -4.426,15.166 -0.2,0.652 -1.827,0.962 -2.603,0.8 -1.803,0.165 -1.854,0.162 -1.767,-1.416 0.13,-2.345 -0.298,-4.531 -1.839,-6.5 -2.451,-3.132 -5.722,-5.336 -9.621,-6.799 -2.834,-1.063 -5.806,-1.664 -8.904,-1.562 -3.787,0.126 -7.312,1.185 -10.75,2.521 -0.512,0.255 -1.019,0.52 -1.537,0.765 -4.708,2.218 -7.843,5.509 -8.737,10.305 -0.17,0.915 -0.204,1.851 -0.309,2.86 -1.528,-0.107 -3.016,-0.242 -4.508,-0.301 -0.771,-0.03 -3.114,-0.265 -3.31,-0.895 -2.287,-7.361 -4.938,-14.333 -7.264,-21.624 -1.487,-4.659 -1.897,-9.29 -3.113,-14.015 -1.106,-4.298 -1.666,-8.669 -2.104,-13.053 -0.273,-2.725 -0.408,-5.451 0.262,-8.158 0.275,-1.113 0.453,-2.247 1.023,-3.285 0.82,-1.495 2.003,-1.984 3.803,-1.611 1.083,0.225 2.047,0.682 2.992,1.172 3.389,1.757 6.895,3.317 10.386,4.902 2.11,0.958 4.224,1.929 6.489,2.562 8.579,2.397 17.123,2.345 25.623,-0.354 4.228,-1.342 8.283,-2.951 11.734,-5.608 0.996,-0.767 2.134,-1.394 3.245,-2.032 1.113,-0.64 2.308,-1.152 3.596,-1.455 2.589,-0.609 4.562,0.129 5.922,2.195 0.325,0.494 0.559,1.02 0.742,1.571 0.363,1.099 0.564,2.226 0.721,3.356 0.951,6.854 0.625,13.653 -0.894,20.433 C 3.348,-13.35 1.657,-6.679 0,0"
             style="fill:#1f84c1;fill-opacity:1;fill-rule:nonzero;stroke:none"
             id="path4519"
             inkscape:connector-curvature="0" />
        </g>
        <g
           id="g4521"
           transform="translate(281.9974,225.6068)">
          <path
             d="m 0,0 c 4.44,-2.498 9.212,-3.336 14.354,-2.239 3.439,0.734 6.391,2.325 8.971,4.412 2.293,1.854 3.792,4.148 3.785,7.461 0.084,1.329 -0.6,2.875 -1.637,4.291 -1.532,2.091 -3.632,3.643 -6.127,4.74 -3.276,1.441 -6.723,2.097 -10.407,1.9 C 6.794,20.45 4.683,20.266 2.617,19.754 -0.177,19.062 -2.641,17.85 -4.331,15.693 -6.418,13.027 -6.762,10.05 -5.85,6.95 -4.961,3.933 -2.933,1.65 0,0"
             style="fill:#9e655f;fill-opacity:1;fill-rule:nonzero;stroke:none"
             id="path4523"
             inkscape:connector-curvature="0" />
        </g>
        <g
           id="g4525"
           transform="translate(316.4917,235.8657)">
          <path
             d="m 0,0 c -0.449,-0.043 -0.898,-0.086 -1.381,-0.133 0,-0.703 -0.039,-1.416 0.006,-2.125 0.183,-2.825 -1.106,-5.16 -3.081,-7.224 -3.605,-3.768 -8.253,-6.032 -13.65,-6.857 -5.22,-0.797 -10.205,0.099 -14.776,2.583 0.537,0.118 0.964,-0.188 1.426,-0.32 4.396,-1.253 8.831,-1.481 13.304,-0.401 4.41,1.064 7.969,3.305 10.818,6.465 1.383,1.535 1.918,3.392 2.355,5.273 0.167,0.715 0.319,1.434 0.332,2.17 0.007,0.409 0.168,0.735 0.71,0.711 C -2.625,0.081 -1.303,0.258 0,0"
             style="fill:#195c84;fill-opacity:1;fill-rule:nonzero;stroke:none"
             id="path4527"
             inkscape:connector-curvature="0" />
        </g>
        <g
           id="g4529"
           transform="translate(293.2289,224.3128)">
          <path
             d="m 0,0 c -0.921,0.153 -2.011,0.206 -2.981,0.716 -1.409,0.741 -2.268,2.706 -1.729,3.995 0.337,0.806 1.023,1.339 1.831,1.721 0.961,0.454 1.924,0.904 2.953,1.246 1.896,0.629 3.491,1.706 4.992,2.896 0.826,0.655 1.768,1.145 2.78,1.51 1.806,0.651 3.761,-0.366 4.16,-2.068 C 12.582,7.56 11.645,5.483 10.066,3.565 9.573,2.967 8.804,2.638 8.102,2.275 5.64,1.001 2.976,0.271 0,0"
             style="fill:#7f554a;fill-opacity:1;fill-rule:nonzero;stroke:none"
             id="path4531"
             inkscape:connector-curvature="0" />
        </g>
        <g
           id="g4533"
           transform="translate(281.4645,235.7876)">
          <path
             d="M 0,0 C -1.111,-0.024 -2.175,0.028 -2.753,1.014 -3.331,1.999 -3.144,2.985 -2.516,3.906 -0.889,6.295 1.569,7.654 4.611,7.799 7.23,7.923 8.291,6.145 7.294,4.363 5.794,1.683 3.295,0.281 0,0"
             style="fill:#ae8a96;fill-opacity:1;fill-rule:nonzero;stroke:none"
             id="path4535"
             inkscape:connector-curvature="0" />
        </g>
        <g
           id="g4537"
           transform="translate(282.0665,236.4797)">
          <path
             d="M 0,0 C -0.506,0.023 -0.735,0.021 -0.959,0.047 -2.293,0.2 -3.036,1.171 -2.646,2.318 -2.061,4.039 -0.612,5.052 1.092,5.83 1.746,6.128 2.461,6.276 3.174,6.379 4.116,6.517 5.023,6.368 5.631,5.645 6.245,4.913 6.129,4.076 5.668,3.342 4.374,1.277 2.369,0.173 0,0"
             style="fill:#fefefe;fill-opacity:1;fill-rule:nonzero;stroke:none"
             id="path4539"
             inkscape:connector-curvature="0" />
        </g>
        <g
           id="g4541"
           transform="translate(281.5597,200.1351)">
          <path
             d="M 0,0 0.052,0.012 C 0.032,0.009 0.016,0.004 0,0 m 2.141,-8.56 -0.034,0.102 c 0.03,1.122 0.05,2.245 0.133,3.366 l 0.217,2.914 0.06,0.564 -0.418,0.024 C 1.792,-1.66 1.485,-1.728 1.178,-1.796 l -1.645,-0.169 c -0.489,-0.047 -0.982,-0.1 -1.478,-0.116 l -0.109,0.015 -0.455,0.005 c -0.397,0.042 -0.809,0.046 -1.201,0.106 l -0.049,0.02 c 0.673,0.16 0.198,0.064 -0.053,0.039 l -2.012,0.057 -0.039,0.078 0.031,0.078 c 0.152,0.152 0.389,0.247 0.625,0.351 l 1.003,0.515 0.959,0.13 c 0.273,0.021 0.547,0.037 0.816,0.067 l 0.072,0.018 -0.22,0.021 c 0.451,0.125 0.927,0.215 1.396,0.311 l 1.069,0.245 c -0.004,0.004 -0.008,0.013 -0.011,0.024 l 1.172,0.44 0.91,0.13 C 2.455,0.601 2.955,0.613 3.453,0.63 L 4.655,0.687 6.699,-0.579 C 6.771,-1.094 6.676,-1.677 6.852,-2.178 l 0.219,-2.914 0.125,-3.261 c 0.336,-0.295 0.668,-0.592 1.008,-0.885 l -3.53,-2.384 -0.019,0 -0.702,0 -0.7,0.002 -0.702,0.002 -0.607,0.002 -2.375,-0.806 c -0.408,0.005 -0.817,0.01 -1.225,0.016 l -0.03,0.001 c -0.214,0.003 -0.428,0.004 -0.642,0.008 l -0.029,10e-4 -0.702,0.011 -0.061,0.003 c -0.427,0.009 -0.855,0.01 -1.282,0.02 l -0.059,0.003 -1.344,0.026 -0.058,0.004 -1.705,0.433 c -0.206,0.134 -0.471,0.265 -0.645,0.413 l -0.665,1.002 c -0.085,0.296 -0.334,0.569 -0.53,0.843 l -0.652,1.631 0.404,2.915 0.158,2.721 c 0.052,0.474 0.118,0.979 0.592,1.375 l 0.238,0.067 0.24,-0.064 c 0.482,-0.345 0.716,-0.802 0.957,-1.222 l 1.193,-2.877 0.404,-2.914 0.43,-0.483 c 0.319,-0.338 0.596,-0.657 0.83,-1.003 0.05,0.002 0.102,0.006 0.153,0.01 l 0.059,0.003 c 0.427,0.01 0.855,0.011 1.282,0.02 l 0.061,0.002 0.702,0.012 0.029,10e-4 c 0.156,0.003 0.311,0.004 0.467,0.005 0.008,0.01 0.015,0.02 0.023,0.03 l 2.373,0.839 c 0.204,0.002 0.409,0.004 0.614,0.005 l 0.67,0.003 0.031,10e-4 0.291,10e-4 z"
             style="fill:#373435;fill-opacity:1;fill-rule:evenodd;stroke:none"
             id="path4543"
             inkscape:connector-curvature="0" />
        </g>
        <g
           id="g4545"
           transform="translate(308.1232,198.8655)">
          <path
             d="M 0,0 C 0.014,-0.003 0.051,-0.011 0.064,-0.005 0.063,-0.002 0.061,-0.002 0.058,0 0.012,0.014 -0.04,0.021 -0.089,0.028 c -0.005,0 -0.012,0.001 -0.02,0.002 L 0,0 Z m -1.331,-8.535 0.009,0.549 0.115,3.331 0.131,2.297 0.022,0.201 0.206,2.238 -0.024,0.001 -0.897,0.049 c -0.375,0.013 -0.751,0.024 -1.125,0.05 l -0.025,0.004 -1.719,-0.214 -5.35,0.37 -0.007,0.227 c 0.31,0.264 0.936,0.361 1.429,0.458 l 3.487,0.56 C -5.231,1.587 -5.314,1.522 -5.286,1.61 l 1.789,0.491 0.603,0.065 c 0.638,0.045 1.283,0.048 1.923,0.085 l 0.099,0.013 0.701,0.033 0.046,0.004 C 0.254,2.315 0.632,2.286 1.002,2.242 L 1.467,2.166 1.616,2.132 C 1.697,2.111 1.776,2.089 1.855,2.066 L 2.025,2.01 2.202,1.94 2.383,1.855 2.474,1.807 2.565,1.753 2.655,1.694 C 2.699,1.661 2.743,1.629 2.786,1.595 L 2.908,1.484 2.982,1.403 3.049,1.318 3.107,1.23 3.156,1.138 3.195,1.044 3.224,0.949 3.241,0.853 3.248,0.757 3.517,-2.157 3.538,-2.358 c 0.058,-0.766 0.07,-1.532 0.131,-2.297 l 0.116,-3.331 0.02,-1.249 0.007,-0.832 -2.669,-1.533 c -0.204,0 -0.408,-0.001 -0.613,-0.001 l -0.233,-10e-4 -1.169,10e-4 -0.702,0.002 -0.7,0.002 -0.702,0.003 -0.03,10e-4 c -0.223,0 -0.449,-0.002 -0.671,0.003 l -0.701,0.005 -0.672,0.005 -0.029,10e-4 -1.403,0.013 -0.061,0.002 c -0.405,0.005 -0.81,0.007 -1.214,0.012 l -0.128,0.003 -1.343,0.018 -0.059,0.003 -0.061,0.002 c -0.427,0.009 -0.855,0.01 -1.282,0.019 l -0.059,0.003 -2.19,0.832 c -0.201,0.264 -0.476,0.535 -0.628,0.809 l -0.214,0.484 0.025,-0.032 c -0.064,0.133 -0.183,0.257 -0.274,0.384 l -0.397,1.041 0.029,0.344 c 0.008,0.151 0.015,0.303 0.03,0.454 l 0.009,0.035 0.01,0.182 c -0.088,0.785 -0.464,1.517 -0.45,2.316 l 0.046,0.347 c 0.013,0.151 0.024,0.302 0.048,0.451 l 0.014,0.035 1.456,3.852 c 0.363,0.536 0.78,1.104 1.489,1.51 l 0.296,0.05 0.22,-0.127 c 0.302,-0.548 0.227,-1.144 0.2,-1.715 l 0.015,-3.57 0.014,-0.035 c 0.024,-0.149 0.035,-0.3 0.048,-0.451 l 0.047,-0.347 0.885,-2.021 0.077,-0.477 0.008,-0.035 c 0.015,-0.151 0.023,-0.303 0.031,-0.454 l 0.028,-0.344 -0.013,0.168 c 0.116,-0.113 0.225,-0.233 0.323,-0.351 l 0.199,-0.439 c 0.007,0 0.014,0.001 0.021,0.002 l 0.059,0.002 c 0.446,0.008 0.9,-0.002 1.343,0.018 l 0.06,0.002 c 0.427,0.007 0.855,0.007 1.282,0.013 l 0.061,0.002 1.403,0.014 0.029,0 c 0.223,0.003 0.449,-10e-4 0.672,0.005 l 0.701,0.005 0.671,0.004 0.03,0 0.702,0.003 0.7,0.002 0.243,10e-4 z"
             style="fill:#373435;fill-opacity:1;fill-rule:evenodd;stroke:none"
             id="path4547"
             inkscape:connector-curvature="0" />
        </g>
        <g
           id="g4549"
           transform="translate(289.0782,208.408)">
          <path
             d="m 0,0 0.01,-0.048 0.013,-0.008 0,0.008 C 0.018,-0.032 0.009,-0.016 0,0 M 8.079,5.415 8.107,5.387 C 8.125,5.372 8.143,5.356 8.163,5.342 L 8.188,5.325 C 8.199,5.318 8.21,5.311 8.221,5.305 L 8.249,5.291 8.264,5.285 C 8.277,5.282 8.281,5.281 8.294,5.281 8.322,5.305 8.158,5.378 8.133,5.39 L 8.079,5.415 Z M 7.674,-0.383 7.667,-0.431 7.665,-0.505 7.674,-0.383 Z M 6.129,0.583 7.845,0.595 C 7.956,1.037 8.082,1.477 8.144,1.922 L 8.293,3.54 7.939,5.174 C 7.927,5.28 7.92,5.383 7.917,5.486 L 7.833,5.52 C 7.416,5.675 6.976,5.8 6.528,5.919 L 3.713,6.607 C 3.318,6.718 2.965,6.829 2.744,7.058 L 2.701,7.181 2.749,7.304 2.902,7.422 C 4.054,7.897 6.014,7.717 7.307,7.634 L 8.865,7.453 9.184,7.4 9.503,7.338 9.822,7.266 10.607,7.007 10.753,6.943 C 10.827,6.907 10.9,6.87 10.972,6.832 L 11.042,6.791 11.112,6.747 11.182,6.7 11.25,6.65 11.318,6.597 C 11.351,6.568 11.384,6.539 11.416,6.51 l 0.094,-0.097 0.056,-0.068 0.053,-0.073 0.046,-0.076 0.042,-0.08 c 0.018,-0.042 0.034,-0.084 0.048,-0.127 l 0.022,-0.088 c 0.006,-0.045 0.012,-0.09 0.016,-0.136 l 0.313,-0.518 c 0.276,-0.395 0.461,-0.773 0.595,-1.192 l 0.08,-0.514 0.148,-1.619 -0.202,-2.198 10e-4,-0.229 -0.005,-0.111 -0.016,-0.108 -0.025,-0.105 -0.035,-0.1 -0.042,-0.096 -0.05,-0.092 -0.055,-0.089 -0.063,-0.085 -0.101,-0.12 -0.075,-0.076 -0.077,-0.072 -0.081,-0.07 -0.087,-0.066 -0.09,-0.065 C 11.878,-1.791 11.831,-1.821 11.783,-1.851 L 11.681,-1.909 11.577,-1.965 11.467,-2.018 11.354,-2.068 11.235,-2.117 11.111,-2.163 10.98,-2.206 10.844,-2.246 10.7,-2.284 10.552,-2.318 10.396,-2.349 10.233,-2.375 10.064,-2.396 9.888,-2.412 9.704,-2.423 9.515,-2.426 6.283,-2.484 l -6.144,0.02 -0.923,0.047 -0.851,0.064 c -0.345,0.02 -0.667,0.065 -0.994,0.141 l -0.152,0.04 -0.147,0.044 -0.143,0.049 -0.137,0.053 -0.13,0.055 -0.124,0.059 -0.116,0.061 -0.108,0.063 -0.196,0.13 -0.165,0.132 -0.139,0.131 -0.114,0.127 c -0.118,0.153 -0.211,0.304 -0.284,0.466 l -0.073,0.211 -0.044,0.195 c -0.045,0.303 -0.04,0.6 -0.012,0.902 l 0.302,4.788 c 0.112,0.868 0.234,1.785 0.952,2.558 L -3.09,7.99 -2.719,7.855 c 0.734,-0.73 1.02,-1.612 1.329,-2.434 l 1.285,-4.91 0.45,-0.005 C 2.274,0.504 4.201,0.547 6.129,0.583"
             style="fill:#373435;fill-opacity:1;fill-rule:evenodd;stroke:none"
             id="path4551"
             inkscape:connector-curvature="0" />
        </g>
        <g
           id="g4553"
           transform="translate(316.6224,135.1506)">
          <path
             d="m 0,0 c -0.581,-0.05 -1.216,0.033 -1.868,0.232 -0.37,0.514 -0.564,0.995 -0.564,1.459 0,0.597 0.264,1.194 0.811,1.758 1.463,2.239 3.331,4.379 5.623,6.419 0.917,1.592 2.89,3.565 5.941,5.97 0.422,0.514 1.021,0.895 1.779,1.144 0.6,0.813 1.869,1.874 3.825,3.135 0.318,0.216 0.547,0.381 0.653,0.547 0.159,0.199 -0.035,0.332 -0.564,0.382 l -1.639,0.149 c -2.168,-0.05 -3.702,0 -4.637,0.149 0.106,0.149 0.16,0.316 0.16,0.465 0,0.414 -1.218,0.63 -3.65,0.679 0.265,1.593 1.111,2.272 2.521,2.074 0.264,0.414 0.652,0.613 1.129,0.613 l 12.778,0 c 1.253,0 2.116,-0.531 2.609,-1.609 -0.229,-0.199 -0.334,-0.398 -0.334,-0.613 0,-0.249 0.105,-0.481 0.334,-0.68 -0.334,-0.813 -1.11,-1.708 -2.362,-2.687 -0.493,0.05 -0.863,0.017 -1.092,-0.116 -0.247,-0.116 -0.353,-0.381 -0.3,-0.796 -1.023,-0.415 -1.639,-0.896 -1.868,-1.46 -1.181,-0.397 -2.239,-1.111 -3.173,-2.139 l -0.565,-0.447 c -1.251,-0.365 -1.85,-0.88 -1.797,-1.543 -0.865,0.05 -2.028,-0.58 -3.491,-1.907 C 9.713,10.199 8.884,9.287 7.739,8.425 7.298,7.712 6.469,6.783 5.218,5.672 5.377,4.942 5.571,4.594 5.782,4.594 c 0.106,0 0.194,0.016 0.247,0.083 1.357,0.348 3.279,0.53 5.782,0.53 0.053,-0.464 0.511,-0.697 1.374,-0.697 0.282,0 0.6,0.034 0.988,0.084 0.369,0.348 0.722,0.53 1.057,0.53 0.37,0 0.706,-0.198 0.97,-0.614 0.212,0.216 0.441,0.316 0.652,0.316 0.158,0 0.317,-0.1 0.494,-0.316 4.16,-0.298 6.31,-0.944 6.416,-1.906 C 23.868,1.675 23.409,0.995 22.387,0.531 22.158,0.282 21.506,0.282 20.43,0.531 19.285,0.845 18.562,1.194 18.227,1.608 18.068,1.293 17.275,1.144 15.865,1.144 15.23,1.144 14.455,1.177 13.591,1.227 13.527,1.431 13.447,1.442 13.295,1.441 13.061,1.438 12.888,1.379 12.622,1.144 l -0.653,0 c -0.147,1.415 -2.08,-0.098 -3.913,0 L 5.218,1.376 5.059,0.912 3.667,1.144 C 3.067,0.713 2.398,0.547 1.64,0.647 1.146,0.265 0.6,0.05 0,0"
             style="fill:#373435;fill-opacity:1;fill-rule:nonzero;stroke:none"
             id="path4555"
             inkscape:connector-curvature="0" />
        </g>
        <g
           id="g4557"
           transform="translate(305.8217,141.1935)">
          <path
             d="m 0,0 c 0.194,0.104 0.397,0.218 0.622,0.358 0.185,0.058 0.369,0.212 0.554,0.443 0.573,0 1.003,0.25 1.332,0.714 l 0.369,0.096 c 0.351,0.07 0.339,0.222 0.707,0.478 L 3.921,2.324 5.197,2.889 6.011,3.211 C 6.441,3.154 7.139,3.115 8.081,3.115 l 0,-0.251 C 7.711,2.637 7.426,2.431 7.216,2.175 L 6.953,1.833 6.769,1.595 C 6.289,1.404 6.179,1.19 6.036,0.916 5.94,0.729 5.631,0.325 5.254,0.011 4.495,-0.047 3.49,-0.529 2.221,-1.416 c -1.189,0 -2.214,-0.52 -3.033,-1.6 -1.251,-0.656 -2.07,-0.945 -2.459,-0.887 -0.553,-0.598 -1.107,-0.79 -1.599,-0.617 -0.245,-0.482 -0.573,-0.713 -0.942,-0.713 -0.266,0 -0.533,0.115 -0.861,0.346 -0.881,-0.424 -2.398,-0.597 -4.528,-0.539 -0.964,-0.405 -1.906,-0.617 -2.849,-0.617 -0.758,0 -1.701,0.173 -2.828,0.54 -2.336,0.713 -4.036,1.986 -5.123,3.817 -0.942,0.482 -1.352,1.909 -1.229,4.28 -0.246,0.405 -0.37,0.791 -0.37,1.157 0,0.578 0.288,1.176 0.862,1.774 0.307,1.06 0.676,1.812 1.127,2.217 0.512,1.022 0.758,1.928 0.758,2.757 0.635,0.366 1.188,1.08 1.7,2.14 1.947,1.6 3.238,2.294 3.874,2.044 -0.124,0.424 1.167,1.368 3.873,2.853 1.331,0.116 2.11,-0.038 2.377,-0.443 0.881,-0.116 1.946,-0.579 3.217,-1.35 0.553,-0.54 0.84,-0.945 0.84,-1.253 0,-0.347 -0.431,-0.598 -1.312,-0.713 -0.265,-0.406 -1.045,-0.714 -2.376,-0.888 -3.218,-0.963 -5.287,-2.39 -6.23,-4.299 -1.393,-0.52 -2.213,-1.484 -2.459,-2.853 -0.328,-0.598 -0.758,-0.984 -1.332,-1.157 -0.308,-3.702 0.819,-5.707 3.402,-5.996 l 9.836,0 c 0.288,0 1.236,-0.002 1.471,0.115 0.051,0.036 0.133,0.11 0.229,0.213 1.005,0.058 1.68,0.27 1.988,0.655 l 0.39,0.174 c 0.184,-0.54 0.49,-0.558 0.943,-0.097 C -0.271,-0.2 -0.037,-0.112 0,0"
             style="fill:#373435;fill-opacity:1;fill-rule:nonzero;stroke:none"
             id="path4559"
             inkscape:connector-curvature="0" />
        </g>
        <g
           id="g4561"
           transform="translate(253.0991,135.1506)">
          <path
             d="m 0,0 c -0.582,-0.05 -1.216,0.033 -1.869,0.232 -0.37,0.514 -0.563,0.995 -0.563,1.459 0,0.597 0.264,1.194 0.81,1.758 1.463,2.239 3.331,4.379 5.623,6.419 0.917,1.592 2.891,3.565 5.94,5.97 0.423,0.514 1.023,0.895 1.781,1.144 0.598,0.813 1.868,1.874 3.825,3.135 0.316,0.216 0.547,0.381 0.652,0.547 0.158,0.199 -0.036,0.332 -0.564,0.382 l -1.639,0.149 c -2.169,-0.05 -3.702,0 -4.637,0.149 0.939,1.328 -3.27,1.14 -3.49,1.144 0.265,1.593 1.111,2.272 2.521,2.074 0.265,0.414 0.653,0.613 1.129,0.613 l 12.779,0 c 1.251,0 2.115,-0.531 2.609,-1.609 -0.229,-0.199 -0.335,-0.398 -0.335,-0.613 0,-0.249 0.106,-0.481 0.335,-0.68 -0.335,-0.813 -1.111,-1.708 -2.363,-2.687 -0.492,0.05 -0.863,0.017 -1.092,-0.116 -0.247,-0.116 -0.353,-0.381 -0.3,-0.796 -1.022,-0.415 -1.64,-0.896 -1.868,-1.46 -1.181,-0.397 -2.239,-1.111 -3.174,-2.139 l -0.563,-0.447 c -1.251,-0.365 -1.851,-0.88 -1.798,-1.543 -0.863,0.05 -2.027,-0.58 -3.49,-1.907 C 9.712,10.199 8.883,9.287 7.738,8.425 7.297,7.712 6.469,6.783 5.217,5.672 5.376,4.942 5.57,4.594 5.782,4.594 c 0.105,0 0.194,0.016 0.247,0.083 1.357,0.348 3.278,0.53 5.78,0.53 0.054,-0.464 0.511,-0.697 1.376,-0.697 0.281,0 0.599,0.034 0.987,0.084 0.37,0.348 0.722,0.53 1.058,0.53 0.37,0 0.704,-0.198 0.969,-0.614 0.211,0.216 0.44,0.316 0.652,0.316 0.159,0 0.318,-0.1 0.493,-0.316 4.161,-0.298 6.311,-0.944 6.417,-1.906 0.106,-0.929 -0.352,-1.609 -1.375,-2.073 -0.229,-0.249 -0.881,-0.249 -1.957,0 -1.145,0.314 -1.868,0.663 -2.203,1.077 -0.159,-0.315 -0.951,-0.464 -2.363,-0.464 -0.633,0 -1.41,0.033 -2.273,0.083 -0.128,0.174 -0.237,0.161 -0.41,0.16 -0.221,-0.002 -0.361,-0.04 -0.559,-0.243 l -0.652,0 L 11.88,1.99 C 11.176,1.326 9.906,1.045 8.055,1.144 L 5.217,1.376 5.058,0.912 3.666,1.144 C 3.067,0.713 2.397,0.547 1.639,0.647 1.145,0.265 0.599,0.05 0,0"
             style="fill:#373435;fill-opacity:1;fill-rule:nonzero;stroke:none"
             id="path4563"
             inkscape:connector-curvature="0" />
        </g>
        <g
           id="g4565"
           transform="translate(239.6775,161.9442)">
          <path
             d="m 0,0 c -0.105,-0.149 -1.002,-0.789 -1.372,-0.69 -0.44,-0.464 -1.04,-0.696 -1.797,-0.696 -1.464,-1.277 -3.35,-2.422 -5.695,-3.433 -0.211,-0.564 -0.316,-1.111 -0.316,-1.609 0,-1.891 1.198,-3.731 3.578,-5.523 1.643,-0.914 3.005,-2.371 4.548,-2.371 2.467,0 4.165,-3.134 6.521,-3.134 1.023,-1.228 1.587,-2.455 1.71,-3.666 -1.533,-2.106 -3.648,-3.068 -6.345,-2.919 -1.041,-0.862 -2.186,-1.293 -3.42,-1.293 l -3.014,-1.46 c -0.323,0.043 -0.574,-0.032 -1.208,-0.223 -0.187,-0.057 -0.516,0.185 -1.066,0.223 -1.146,0.995 -1.71,2.14 -1.71,3.4 0.705,0.946 1.251,1.427 1.621,1.427 0.106,0 0.336,-0.15 0.653,-0.465 0.317,-0.299 0.863,-0.415 1.622,-0.299 0,0.614 0.687,0.813 2.044,0.614 0.424,0.664 1.182,0.929 2.274,0.829 0.37,0.415 1.199,0.597 2.433,0.548 0.599,0.149 0.898,0.348 0.898,0.613 0,0.299 -0.404,0.663 -1.216,1.062 -2.373,0.131 -5.811,2.427 -7.738,3.748 -1.463,0.315 -2.327,0.945 -2.591,1.923 -2.168,2.19 -3.314,4.362 -3.42,6.502 -0.441,0.249 -0.652,0.663 -0.652,1.227 0,1.526 0.758,2.952 2.274,4.279 1.516,1.326 3.102,1.99 4.724,1.99 0.652,0.829 1.374,1.227 2.204,1.227 0.211,0 0.422,-0.016 0.634,-0.066 0.388,0.597 0.793,0.912 1.234,0.912 0.158,0 0.317,-0.05 0.476,-0.15 C -1.874,3.584 0.89,3.97 1.889,3.97 2.7,3.97 3.07,3.722 3.017,3.208 3.458,3.307 3.705,2.892 3.758,1.98 3.476,1.931 3.352,1.732 3.352,1.367 c 0,-0.199 0.017,-0.432 0.071,-0.68 l 0.652,-0.083 0,-0.299 -1.058,0 0,0.299 C 2.7,0.654 2.313,0.687 1.889,0.687 1.502,0.687 1.043,0.654 0.496,0.604 0.496,0.504 0.106,0.099 0,0"
             style="fill:#373435;fill-opacity:1;fill-rule:nonzero;stroke:none"
             id="path4567"
             inkscape:connector-curvature="0" />
        </g>
        <g
           id="g4569"
           transform="translate(201.917,135.847)">
          <path
             d="m 0,0 c -2.134,0.061 -3.375,0.348 -3.724,0.861 -3.419,0.942 -5.661,2.663 -6.729,5.183 -0.327,1.27 -0.5,2.336 -0.5,3.216 0,1.284 0.606,2.331 0.806,3.586 0.582,0.911 -0.363,1.279 0.304,2.172 1.263,3.093 3.354,5.019 6.228,5.777 1.546,-0.062 2.417,0.184 2.614,0.758 1.132,0.123 2.133,0.184 3.004,0.184 1.481,0 2.417,-0.184 2.832,-0.573 0.457,-0.123 0.892,-0.021 1.305,0.286 0.393,-0.061 1.003,-0.286 1.808,-0.655 0.806,-0.819 1.808,-1.168 3.005,-1.045 2.548,-1.126 3.919,-2.458 4.116,-3.975 1.416,0.123 2.395,-0.307 2.918,-1.311 1.332,-1.345 1.316,-1.239 1.611,-2.848 C 19.664,8.216 19.337,6.515 18.596,6.515 16.854,4.302 14.938,2.663 12.87,1.598 12.456,1.782 12.086,1.885 11.759,1.885 11.301,1.885 10.996,1.598 10.866,1.024 8.166,1.086 6.664,0.779 6.337,0.082 L 0,0 Z m -5.923,10.674 0.305,-2.827 c 1.197,-2.008 3.549,-3.217 7.034,-3.586 5.008,0.246 9.037,1.353 12.063,3.299 1.263,0.82 1.633,1.885 1.089,3.216 -1.328,0.43 -2.569,1.394 -3.702,2.828 -3.048,1.352 -5.166,2.577 -8.863,2.929 -0.522,-0.696 -2.068,-0.942 -4.617,-0.758 -1.001,-0.757 -1.32,-1.351 -1.502,-1.7 -0.532,-1.027 -1.423,-1.954 -1.807,-3.401"
             style="fill:#373435;fill-opacity:1;fill-rule:nonzero;stroke:none"
             id="path4571"
             inkscape:connector-curvature="0" />
        </g>
        <g
           id="g4573"
           transform="translate(179.4195,133.0107)">
          <path
             d="m 0,0 c -0.546,0.249 -0.97,1.244 -1.305,2.985 0.089,0.278 -0.126,0.583 0,0.597 l 0,1.062 c 0,2.566 1.886,4.514 1.886,6.783 l 0,1.509 c 0,0.348 -0.106,0.448 -0.317,0.299 -0.282,-0.199 -0.653,-0.73 -1.128,-1.609 C -3.297,9.536 -4.971,8.442 -5.888,8.342 -6.733,6.85 -8.761,5.606 -11.934,4.578 c -0.599,-0.349 -1.269,-0.531 -2.027,-0.531 -0.582,0 -1.198,0.099 -1.85,0.299 -1.287,0 -2.293,0.514 -2.997,1.542 -0.265,0.448 -0.688,1.526 -1.288,3.217 0.442,5.092 1.764,8.591 3.985,10.482 0,0.713 0.334,1.426 0.987,2.139 0.37,1.592 1.463,3.201 3.243,4.826 2.274,3.417 4.883,5.772 7.809,7.048 l 0.493,0.68 c -0.105,0.415 0.247,0.647 1.058,0.697 0.106,0 0.652,-0.05 1.621,-0.149 l 1.059,-1.46 -0.812,-0.845 c 0.264,-0.15 0.406,-0.283 0.406,-0.382 0,-0.149 -0.142,-0.331 -0.406,-0.531 l -1.621,-0.083 c 0,-0.712 -0.3,-1.343 -0.899,-1.907 -0.705,-0.099 -1.146,-0.564 -1.305,-1.376 -0.758,0.099 -1.145,-0.133 -1.145,-0.697 -0.917,-0.862 -1.357,-1.493 -1.287,-1.907 -1.428,0.1 -2.714,-1.41 -3.913,-4.511 -0.705,-0.415 -1.163,-1.376 -1.393,-2.919 -0.81,-0.299 -1.515,-1.476 -2.115,-3.516 -0.811,-0.199 -1.217,-1.177 -1.217,-2.919 -0.263,-1.21 -0.316,-2.089 -0.158,-2.587 0.229,-0.614 0.811,-0.846 1.798,-0.696 1.833,-0.2 3.526,0.464 5.042,1.99 0.35,0.342 0.237,0.234 0.639,0.409 1.093,0.474 3.737,2.914 4.084,2.808 0.423,1.012 1.058,1.708 1.869,2.073 l 1.551,1.526 c 0.106,0.713 0.775,1.575 2.027,2.604 0.705,0.348 1.305,0.53 1.798,0.53 0.758,0 1.304,-0.381 1.622,-1.144 0.211,-0.215 0.317,-0.381 0.317,-0.547 0,-0.262 0.05,-0.744 0,-0.979 L 4.724,11.095 C 4.177,10.233 3.966,8.823 4.072,6.883 3.585,5.116 3.791,5.288 3.578,3.748 3.261,1.808 2.309,0.564 0.74,0 0.458,-0.099 0.211,-0.099 0,0"
             style="fill:#373435;fill-opacity:1;fill-rule:nonzero;stroke:none"
             id="path4575"
             inkscape:connector-curvature="0" />
        </g>
        <g
           id="g4577"
           transform="translate(146.0691,147.3899)">
          <path
             d="m 0,0 c 1.136,0.309 2.193,0.923 3.172,1.841 0.864,1.078 1.305,1.99 1.305,2.753 0,0.613 -0.511,1.36 -1.552,2.222 -3.031,2.554 -8.883,5.29 -17.555,8.193 -0.547,0.249 -0.917,0.381 -1.147,0.381 -0.528,0 -0.722,-0.431 -0.564,-1.293 l 1.234,-16.004 c 0.265,-3.881 0.265,-6.933 0,-9.188 -0.211,-1.427 -0.951,-2.272 -2.185,-2.521 -1.146,0 -1.904,0.912 -2.274,2.753 0.105,1.277 0.07,2.803 -0.088,4.594 l -0.424,4.594 -0.652,16.833 c -0.598,1.576 -0.898,2.786 -0.898,3.599 0,1.011 0.44,1.509 1.303,1.46 0.424,0.199 0.864,0.298 1.305,0.298 0.811,0 1.534,-0.365 2.186,-1.078 1.798,0.116 3.173,-0.066 4.16,-0.531 C -6.276,17.38 -0.476,14.677 4.724,10.796 6.998,9.104 8.143,7.015 8.143,4.528 8.143,3.814 8.055,3.035 7.897,2.222 8.055,2.073 8.143,1.891 8.143,1.691 8.143,1.377 7.016,0.266 4.759,-1.675 3.561,-2.704 2.433,-3.433 1.357,-3.898 l -3.472,-1.525 c -0.212,-0.813 -1.217,-1.377 -2.979,-1.692 -1.886,-1.061 -4.513,-1.559 -7.844,-1.443 -1.181,0.714 -1.781,1.427 -1.781,2.14 0,0.563 0.388,1.177 1.145,1.841 l 3.579,1.293 C -8.843,-1.81 -1.933,-0.525 0,0"
             style="fill:#373435;fill-opacity:1;fill-rule:nonzero;stroke:none"
             id="path4579"
             inkscape:connector-curvature="0" />
        </g>
        <g
           id="g4581"
           transform="translate(98.3351,135.1506)">
          <path
             d="m 0,0 c -0.653,0.199 -1.041,0.845 -1.146,1.907 0.388,1.94 0.952,2.819 1.71,2.603 0.105,1.643 0.405,2.455 0.899,2.455 -0.229,1.128 0.476,2.223 2.115,3.301 -0.106,0.248 -0.158,0.481 -0.158,0.679 0,0.614 0.316,1.045 0.969,1.311 0.159,0.813 0.406,1.144 0.722,0.995 0.177,0.514 0.829,1.658 1.957,3.45 0.987,1.525 1.445,2.487 1.393,2.902 -2.292,-1.526 -5.395,-2.322 -9.36,-2.372 -2.873,0.464 -6.257,2.986 -10.171,7.579 0.264,0.299 0.405,0.863 0.405,1.675 0,0.515 -0.053,1.128 -0.158,1.841 0.547,0.863 1.216,1.294 2.027,1.294 0.546,0 1.146,-0.199 1.797,-0.614 l 0.247,-0.68 c -0.176,-1.542 0.67,-3.25 2.521,-5.124 1.304,-1.377 2.926,-2.074 4.883,-2.074 1.41,0 2.979,0.365 4.706,1.078 4.336,2.289 8.338,5.324 11.97,9.105 0.81,0.349 1.479,0.531 2.026,0.531 0.811,0 1.41,-0.298 1.798,-0.912 0.264,-1.078 -0.246,-2.488 -1.551,-4.213 -1.851,-1.741 -4.195,-4.826 -7.086,-9.27 -1.234,-1.941 -2.292,-3.151 -3.173,-3.665 0.229,-0.266 0.334,-0.515 0.334,-0.763 0,-0.266 -0.105,-0.514 -0.334,-0.78 L 6.345,7.728 C 5.64,7.115 5.288,6.534 5.288,5.97 5.288,5.721 5.341,5.489 5.446,5.274 4.354,4.926 3.349,3.366 2.433,0.613 1.41,0 0.599,-0.199 0,0"
             style="fill:#373435;fill-opacity:1;fill-rule:nonzero;stroke:none"
             id="path4583"
             inkscape:connector-curvature="0" />
        </g>
        <g
           id="g4585"
           transform="translate(62.111,134.918)">
          <path
             d="m 0,0 c -0.758,0.249 -1.216,0.813 -1.392,1.692 -0.212,0.962 1.039,1.658 3.754,2.056 1.41,0.979 2.837,1.36 4.301,1.161 0.106,0.299 0.793,0.531 2.045,0.68 0.476,0.564 1.163,0.863 2.026,0.929 1.358,0.862 3.068,1.493 5.13,1.907 0.599,0.763 2.027,1.708 4.301,2.836 0.758,0.763 1.146,1.327 1.146,1.675 0,0.415 -0.388,0.647 -1.146,0.697 l -3.49,0 c -0.441,0.315 -1.111,0.414 -2.027,0.282 -0.705,0.481 -2.962,0.63 -6.769,0.481 C 7.721,13.782 6.751,13.583 4.953,13.782 3.772,13.931 3.12,13.301 3.014,11.875 3.49,11.145 3.684,9.105 3.578,5.738 3.138,4.627 2.415,4.03 1.375,3.981 0.458,3.931 -0.37,4.462 -1.145,5.589 c -0.265,1.128 -0.512,3.5 -0.723,7.115 -0.282,4.345 -0.3,7.131 -0.089,8.358 0,1.991 0.247,3.284 0.741,3.898 0,3.582 1.409,5.506 4.23,5.821 0.635,0.862 1.869,0.995 3.649,0.382 0.758,-0.1 1.71,-0.431 2.855,-0.996 1.252,-0.149 2.275,-0.563 3.085,-1.227 0.987,0.1 1.569,-0.149 1.798,-0.762 1.833,-0.614 2.733,-2.306 2.68,-5.059 -0.812,-1.525 -1.869,-2.852 -3.173,-3.98 -0.441,-0.564 -0.618,-0.946 -0.565,-1.145 0.053,-0.265 0.353,-0.364 0.882,-0.315 1.41,0 2.803,0.166 4.16,0.465 0.053,-0.415 1.111,-0.697 3.173,-0.846 2.608,-0.714 4.142,-2.04 4.636,-3.98 C 25.541,11.643 24.572,10.382 23.268,9.57 21.805,7.728 20.112,6.634 18.227,6.286 17.521,5.457 15.935,4.594 13.502,3.682 12.04,3.616 10.541,3.135 9.025,2.223 6.31,1.144 3.296,0.415 0,0 m 3.825,21.594 c 0.158,-0.88 0.071,-1.327 -0.247,-1.377 0.053,-0.315 0.071,-0.647 0.071,-0.995 0,-0.514 -0.071,-1.029 -0.229,-1.543 3.243,-0.198 5.411,0.846 6.503,3.151 1.305,0.448 2.117,1.327 2.433,2.587 0.441,0.166 0.653,0.415 0.653,0.78 0,0.199 -0.106,0.448 -0.318,0.763 -1.251,0 -2.45,0.398 -3.578,1.227 -0.881,0.05 -1.445,0.249 -1.71,0.614 C 6.469,26.9 5.94,27.066 5.764,27.299 5.605,27.514 5.411,27.63 5.199,27.63 4.83,27.63 4.494,27.332 4.23,26.718 4.072,25.64 4.177,24.977 4.548,24.728 c 0,-0.763 -0.247,-1.377 -0.723,-1.841 0,-0.249 -0.282,-1.144 0,-1.293"
             style="fill:#373435;fill-opacity:1;fill-rule:nonzero;stroke:none"
             id="path4587"
             inkscape:connector-curvature="0" />
        </g>
      </g>
    </g>
  </g>
</svg>
